<?xml version="1.0" encoding="UTF-8" standalone="no"?>
<!-- Created with Inkscape (http://www.inkscape.org/) -->

<svg
   xmlns:dc="http://purl.org/dc/elements/1.1/"
   xmlns:cc="http://creativecommons.org/ns#"
   xmlns:rdf="http://www.w3.org/1999/02/22-rdf-syntax-ns#"
   xmlns:svg="http://www.w3.org/2000/svg"
   xmlns="http://www.w3.org/2000/svg"
   xmlns:sodipodi="http://sodipodi.sourceforge.net/DTD/sodipodi-0.dtd"
   xmlns:inkscape="http://www.inkscape.org/namespaces/inkscape"
   width="234"
   height="126"
   id="svg2"
   version="1.1"
   inkscape:version="0.48.5 r10040"
   sodipodi:docname="2b-fig1.svg">
  <defs
     id="defs4">
    <marker
       inkscape:stockid="Arrow1Mend"
       orient="auto"
       refY="0"
       refX="0"
       id="Arrow1Mend"
       style="overflow:visible">
      <path
         id="path4269"
         d="M 0,0 5,-5 -12.5,0 5,5 0,0 z"
         style="fill-rule:evenodd;stroke:#000000;stroke-width:1pt"
         transform="matrix(-0.4,0,0,-0.4,-4,0)"
         inkscape:connector-curvature="0" />
    </marker>
    <marker
       inkscape:stockid="Arrow1Lend"
       orient="auto"
       refY="0"
       refX="0"
       id="Arrow1Lend"
       style="overflow:visible">
      <path
         id="path4263"
         d="M 0,0 5,-5 -12.5,0 5,5 0,0 z"
         style="fill-rule:evenodd;stroke:#000000;stroke-width:1pt"
         transform="matrix(-0.8,0,0,-0.8,-10,0)"
         inkscape:connector-curvature="0" />
    </marker>
  </defs>
  <sodipodi:namedview
     id="base"
     pagecolor="#ffffff"
     bordercolor="#666666"
     borderopacity="1.0"
     inkscape:pageopacity="0.0"
     inkscape:pageshadow="2"
     inkscape:zoom="1.979899"
     inkscape:cx="174.2495"
     inkscape:cy="32.06199"
     inkscape:document-units="px"
     inkscape:current-layer="layer1"
     showgrid="false"
     units="in"
     inkscape:window-width="1596"
     inkscape:window-height="861"
     inkscape:window-x="0"
     inkscape:window-y="18"
     inkscape:window-maximized="0" />
  <metadata
     id="metadata7">
    <rdf:RDF>
      <cc:Work
         rdf:about="">
        <dc:format>image/svg+xml</dc:format>
        <dc:type
           rdf:resource="http://purl.org/dc/dcmitype/StillImage" />
        <dc:title></dc:title>
      </cc:Work>
    </rdf:RDF>
  </metadata>
  <g
     inkscape:label="Layer 1"
     inkscape:groupmode="layer"
     id="layer1"
     transform="translate(0,-926.35975)">
    <g
       id="g4143"
       transform="matrix(1.4926312,0,0,1.4926312,5.0927446,-530.03067)">
      <path
         transform="matrix(1.1285414,0,0,1.1285414,4.3887632,927.50429)"
         d="m 43.92857,103.92857 c 0,1.18347 -0.95939,2.14286 -2.142857,2.14286 -1.183467,0 -2.142857,-0.95939 -2.142857,-2.14286 0,-1.18346 0.95939,-2.14285 2.142857,-2.14285 1.183467,0 2.142857,0.95939 2.142857,2.14285 z"
         sodipodi:ry="2.1428571"
         sodipodi:rx="2.1428571"
         sodipodi:cy="103.92857"
         sodipodi:cx="41.785713"
         id="path2985"
         style="fill:#000000;fill-opacity:1;fill-rule:nonzero;stroke:none"
         sodipodi:type="arc" />
      <path
         sodipodi:type="arc"
         style="fill:#000000;fill-opacity:1;fill-rule:nonzero;stroke:none"
         id="path2987"
         sodipodi:cx="41.785713"
         sodipodi:cy="103.92857"
         sodipodi:rx="2.1428571"
         sodipodi:ry="2.1428571"
         d="m 43.92857,103.92857 c 0,1.18347 -0.95939,2.14286 -2.142857,2.14286 -1.183467,0 -2.142857,-0.95939 -2.142857,-2.14286 0,-1.18346 0.95939,-2.14285 2.142857,-2.14285 1.183467,0 2.142857,0.95939 2.142857,2.14285 z"
         transform="matrix(1.1285414,0,0,1.1285414,4.3887632,915.4921)" />
      <path
         transform="translate(0,872.35975)"
         inkscape:connector-curvature="0"
         id="path3353"
         d="m 51.391511,112.44605 0,35.86041"
         style="fill:#cccccc;stroke:#cccccc;stroke-width:1px;stroke-linecap:butt;stroke-linejoin:miter;stroke-opacity:1" />
      <path
         transform="matrix(1.1285414,0,0,1.1285414,4.3887632,903.4799)"
         d="m 43.92857,103.92857 c 0,1.18347 -0.95939,2.14286 -2.142857,2.14286 -1.183467,0 -2.142857,-0.95939 -2.142857,-2.14286 0,-1.18346 0.95939,-2.14285 2.142857,-2.14285 1.183467,0 2.142857,0.95939 2.142857,2.14285 z"
         sodipodi:ry="2.1428571"
         sodipodi:rx="2.1428571"
         sodipodi:cy="103.92857"
         sodipodi:cx="41.785713"
         id="path2989"
         style="fill:#000000;fill-opacity:1;fill-rule:nonzero;stroke:none"
         sodipodi:type="arc" />
      <path
         style="fill:#cccccc;stroke:#cccccc;stroke-width:1px;stroke-linecap:butt;stroke-linejoin:miter;stroke-opacity:1"
         d="m 63.639611,984.8058 0,35.8604"
         id="path3355"
         inkscape:connector-curvature="0" />
      <text
         sodipodi:linespacing="125%"
         id="text3371"
         y="1015.4891"
         x="68.185303"
         style="font-size:12px;font-style:normal;font-variant:normal;font-weight:normal;font-stretch:normal;text-align:start;line-height:125%;letter-spacing:0px;word-spacing:0px;writing-mode:lr-tb;text-anchor:start;fill:#cccccc;fill-opacity:1;stroke:none;font-family:Sans;-inkscape-font-specification:Sans"
         xml:space="preserve"><tspan
           style="font-size:32px;fill:#cccccc;stroke:none"
           y="1015.4891"
           x="68.185303"
           id="tspan3373"
           sodipodi:role="line">????</tspan></text>
      <path
         inkscape:connector-curvature="0"
         id="path3357"
         d="m 75.508903,984.8058 0,35.8604"
         style="fill:#cccccc;stroke:#cccccc;stroke-width:1px;stroke-linecap:butt;stroke-linejoin:miter;stroke-opacity:1" />
      <path
         style="fill:#cccccc;stroke:#cccccc;stroke-width:1px;stroke-linecap:butt;stroke-linejoin:miter;stroke-opacity:1"
         d="m 87.757003,984.8058 0,35.8604"
         id="path3359"
         inkscape:connector-curvature="0" />
      <path
         inkscape:connector-curvature="0"
         id="path3361"
         d="m 99.500026,984.8058 0,35.8604"
         style="fill:#cccccc;stroke:#cccccc;stroke-width:1px;stroke-linecap:butt;stroke-linejoin:miter;stroke-opacity:1" />
      <path
         style="fill:#cccccc;stroke:#cccccc;stroke-width:1px;stroke-linecap:butt;stroke-linejoin:miter;stroke-opacity:1"
         d="m 111.62186,984.8058 0,35.8604"
         id="path3363"
         inkscape:connector-curvature="0" />
      <path
         inkscape:connector-curvature="0"
         id="path3365"
         d="m 123.86996,984.8058 0,35.8604"
         style="fill:#cccccc;stroke:#cccccc;stroke-width:1px;stroke-linecap:butt;stroke-linejoin:miter;stroke-opacity:1" />
      <path
         style="fill:#cccccc;stroke:#cccccc;stroke-width:1px;stroke-linecap:butt;stroke-linejoin:miter;stroke-opacity:1"
         d="m 135.73925,984.8058 0,35.8604"
         id="path3367"
         inkscape:connector-curvature="0" />
      <path
         inkscape:connector-curvature="0"
         id="path3369"
         d="m 147.60854,984.8058 0,35.8604"
         style="fill:#cccccc;stroke:#cccccc;stroke-width:1px;stroke-linecap:butt;stroke-linejoin:miter;stroke-opacity:1" />
      <path
         transform="translate(0,872.35975)"
         inkscape:connector-curvature="0"
         id="path3347"
         d="m 51.51778,136.56344 96.21703,0"
         style="fill:none;stroke:#cccccc;stroke-width:1px;stroke-linecap:butt;stroke-linejoin:miter;stroke-opacity:1" />
      <path
         sodipodi:type="arc"
         style="fill:#000000;fill-opacity:1;fill-rule:nonzero;stroke:none"
         id="path2991"
         sodipodi:cx="41.785713"
         sodipodi:cy="103.92857"
         sodipodi:rx="2.1428571"
         sodipodi:ry="2.1428571"
         d="m 43.92857,103.92857 c 0,1.18347 -0.95939,2.14286 -2.142857,2.14286 -1.183467,0 -2.142857,-0.95939 -2.142857,-2.14286 0,-1.18346 0.95939,-2.14285 2.142857,-2.14285 1.183467,0 2.142857,0.95939 2.142857,2.14285 z"
         transform="matrix(1.1285414,0,0,1.1285414,4.3887632,891.46771)" />
      <path
         style="fill:none;stroke:#cccccc;stroke-width:1px;stroke-linecap:butt;stroke-linejoin:miter;stroke-opacity:1"
         d="m 51.51778,996.76397 96.21703,0"
         id="path3349"
         inkscape:connector-curvature="0" />
      <path
         transform="matrix(1.1285414,0,0,1.1285414,4.3887632,879.45551)"
         d="m 43.92857,103.92857 c 0,1.18347 -0.95939,2.14286 -2.142857,2.14286 -1.183467,0 -2.142857,-0.95939 -2.142857,-2.14286 0,-1.18346 0.95939,-2.14285 2.142857,-2.14285 1.183467,0 2.142857,0.95939 2.142857,2.14285 z"
         sodipodi:ry="2.1428571"
         sodipodi:rx="2.1428571"
         sodipodi:cy="103.92857"
         sodipodi:cx="41.785713"
         id="path2993"
         style="fill:#000000;fill-opacity:1;fill-rule:nonzero;stroke:none"
         sodipodi:type="arc" />
      <path
         inkscape:connector-curvature="0"
         id="path3351"
         d="m 51.51778,984.64214 96.21703,0"
         style="fill:none;stroke:#cccccc;stroke-width:1px;stroke-linecap:butt;stroke-linejoin:miter;stroke-opacity:1" />
      <path
         sodipodi:type="arc"
         style="fill:#000000;fill-opacity:1;fill-rule:nonzero;stroke:none"
         id="path2995"
         sodipodi:cx="41.785713"
         sodipodi:cy="103.92857"
         sodipodi:rx="2.1428571"
         sodipodi:ry="2.1428571"
         d="m 43.92857,103.92857 c 0,1.18347 -0.95939,2.14286 -2.142857,2.14286 -1.183467,0 -2.142857,-0.95939 -2.142857,-2.14286 0,-1.18346 0.95939,-2.14285 2.142857,-2.14285 1.183467,0 2.142857,0.95939 2.142857,2.14285 z"
         transform="matrix(1.1285414,0,0,1.1285414,4.3887632,867.44332)" />
      <path
         sodipodi:type="arc"
         style="fill:#000000;fill-opacity:1;fill-rule:nonzero;stroke:none"
         id="path3001"
         sodipodi:cx="41.785713"
         sodipodi:cy="103.92857"
         sodipodi:rx="2.1428571"
         sodipodi:ry="2.1428571"
         d="m 43.92857,103.92857 c 0,1.18347 -0.95939,2.14286 -2.142857,2.14286 -1.183467,0 -2.142857,-0.95939 -2.142857,-2.14286 0,-1.18346 0.95939,-2.14285 2.142857,-2.14285 1.183467,0 2.142857,0.95939 2.142857,2.14285 z"
         transform="matrix(1.1285414,0,0,1.1285414,16.400958,927.50429)" />
      <path
         transform="matrix(1.1285414,0,0,1.1285414,16.400958,915.4921)"
         d="m 43.92857,103.92857 c 0,1.18347 -0.95939,2.14286 -2.142857,2.14286 -1.183467,0 -2.142857,-0.95939 -2.142857,-2.14286 0,-1.18346 0.95939,-2.14285 2.142857,-2.14285 1.183467,0 2.142857,0.95939 2.142857,2.14285 z"
         sodipodi:ry="2.1428571"
         sodipodi:rx="2.1428571"
         sodipodi:cy="103.92857"
         sodipodi:cx="41.785713"
         id="path3003"
         style="fill:#000000;fill-opacity:1;fill-rule:nonzero;stroke:none"
         sodipodi:type="arc" />
      <path
         transform="translate(0,872.35975)"
         inkscape:connector-curvature="0"
         id="path3345"
         d="m 63.892149,147.92766 84.095201,0"
         style="fill:#cccccc;stroke:#cccccc;stroke-width:1px;stroke-linecap:butt;stroke-linejoin:miter;stroke-opacity:1" />
      <path
         sodipodi:type="arc"
         style="fill:#000000;fill-opacity:1;fill-rule:nonzero;stroke:none"
         id="path3005"
         sodipodi:cx="41.785713"
         sodipodi:cy="103.92857"
         sodipodi:rx="2.1428571"
         sodipodi:ry="2.1428571"
         d="m 43.92857,103.92857 c 0,1.18347 -0.95939,2.14286 -2.142857,2.14286 -1.183467,0 -2.142857,-0.95939 -2.142857,-2.14286 0,-1.18346 0.95939,-2.14285 2.142857,-2.14285 1.183467,0 2.142857,0.95939 2.142857,2.14285 z"
         transform="matrix(1.1285414,0,0,1.1285414,16.400958,903.4799)" />
      <path
         transform="matrix(1.1285414,0,0,1.1285414,16.400958,891.46771)"
         d="m 43.92857,103.92857 c 0,1.18347 -0.95939,2.14286 -2.142857,2.14286 -1.183467,0 -2.142857,-0.95939 -2.142857,-2.14286 0,-1.18346 0.95939,-2.14285 2.142857,-2.14285 1.183467,0 2.142857,0.95939 2.142857,2.14285 z"
         sodipodi:ry="2.1428571"
         sodipodi:rx="2.1428571"
         sodipodi:cy="103.92857"
         sodipodi:cx="41.785713"
         id="path3007"
         style="fill:#000000;fill-opacity:1;fill-rule:nonzero;stroke:none"
         sodipodi:type="arc" />
      <path
         sodipodi:type="arc"
         style="fill:#000000;fill-opacity:1;fill-rule:nonzero;stroke:none"
         id="path3009"
         sodipodi:cx="41.785713"
         sodipodi:cy="103.92857"
         sodipodi:rx="2.1428571"
         sodipodi:ry="2.1428571"
         d="m 43.92857,103.92857 c 0,1.18347 -0.95939,2.14286 -2.142857,2.14286 -1.183467,0 -2.142857,-0.95939 -2.142857,-2.14286 0,-1.18346 0.95939,-2.14285 2.142857,-2.14285 1.183467,0 2.142857,0.95939 2.142857,2.14285 z"
         transform="matrix(1.1285414,0,0,1.1285414,16.400958,879.45551)" />
      <path
         transform="matrix(1.1285414,0,0,1.1285414,16.400958,867.44332)"
         d="m 43.92857,103.92857 c 0,1.18347 -0.95939,2.14286 -2.142857,2.14286 -1.183467,0 -2.142857,-0.95939 -2.142857,-2.14286 0,-1.18346 0.95939,-2.14285 2.142857,-2.14285 1.183467,0 2.142857,0.95939 2.142857,2.14285 z"
         sodipodi:ry="2.1428571"
         sodipodi:rx="2.1428571"
         sodipodi:cy="103.92857"
         sodipodi:cx="41.785713"
         id="path3011"
         style="fill:#000000;fill-opacity:1;fill-rule:nonzero;stroke:none"
         sodipodi:type="arc" />
      <path
         transform="matrix(1.1285414,0,0,1.1285414,28.413153,927.50429)"
         d="m 43.92857,103.92857 c 0,1.18347 -0.95939,2.14286 -2.142857,2.14286 -1.183467,0 -2.142857,-0.95939 -2.142857,-2.14286 0,-1.18346 0.95939,-2.14285 2.142857,-2.14285 1.183467,0 2.142857,0.95939 2.142857,2.14285 z"
         sodipodi:ry="2.1428571"
         sodipodi:rx="2.1428571"
         sodipodi:cy="103.92857"
         sodipodi:cx="41.785713"
         id="path3017"
         style="fill:#000000;fill-opacity:1;fill-rule:nonzero;stroke:none"
         sodipodi:type="arc" />
      <path
         sodipodi:type="arc"
         style="fill:#000000;fill-opacity:1;fill-rule:nonzero;stroke:none"
         id="path3019"
         sodipodi:cx="41.785713"
         sodipodi:cy="103.92857"
         sodipodi:rx="2.1428571"
         sodipodi:ry="2.1428571"
         d="m 43.92857,103.92857 c 0,1.18347 -0.95939,2.14286 -2.142857,2.14286 -1.183467,0 -2.142857,-0.95939 -2.142857,-2.14286 0,-1.18346 0.95939,-2.14285 2.142857,-2.14285 1.183467,0 2.142857,0.95939 2.142857,2.14285 z"
         transform="matrix(1.1285414,0,0,1.1285414,28.413153,915.4921)" />
      <path
         transform="matrix(1.1285414,0,0,1.1285414,28.413153,903.4799)"
         d="m 43.92857,103.92857 c 0,1.18347 -0.95939,2.14286 -2.142857,2.14286 -1.183467,0 -2.142857,-0.95939 -2.142857,-2.14286 0,-1.18346 0.95939,-2.14285 2.142857,-2.14285 1.183467,0 2.142857,0.95939 2.142857,2.14285 z"
         sodipodi:ry="2.1428571"
         sodipodi:rx="2.1428571"
         sodipodi:cy="103.92857"
         sodipodi:cx="41.785713"
         id="path3021"
         style="fill:#000000;fill-opacity:1;fill-rule:nonzero;stroke:none"
         sodipodi:type="arc" />
      <path
         sodipodi:type="arc"
         style="fill:#000000;fill-opacity:1;fill-rule:nonzero;stroke:none"
         id="path3023"
         sodipodi:cx="41.785713"
         sodipodi:cy="103.92857"
         sodipodi:rx="2.1428571"
         sodipodi:ry="2.1428571"
         d="m 43.92857,103.92857 c 0,1.18347 -0.95939,2.14286 -2.142857,2.14286 -1.183467,0 -2.142857,-0.95939 -2.142857,-2.14286 0,-1.18346 0.95939,-2.14285 2.142857,-2.14285 1.183467,0 2.142857,0.95939 2.142857,2.14285 z"
         transform="matrix(1.1285414,0,0,1.1285414,28.413153,891.46771)" />
      <path
         transform="matrix(1.1285414,0,0,1.1285414,28.413153,879.45551)"
         d="m 43.92857,103.92857 c 0,1.18347 -0.95939,2.14286 -2.142857,2.14286 -1.183467,0 -2.142857,-0.95939 -2.142857,-2.14286 0,-1.18346 0.95939,-2.14285 2.142857,-2.14285 1.183467,0 2.142857,0.95939 2.142857,2.14285 z"
         sodipodi:ry="2.1428571"
         sodipodi:rx="2.1428571"
         sodipodi:cy="103.92857"
         sodipodi:cx="41.785713"
         id="path3025"
         style="fill:#000000;fill-opacity:1;fill-rule:nonzero;stroke:none"
         sodipodi:type="arc" />
      <path
         sodipodi:type="arc"
         style="fill:#000000;fill-opacity:1;fill-rule:nonzero;stroke:none"
         id="path3027"
         sodipodi:cx="41.785713"
         sodipodi:cy="103.92857"
         sodipodi:rx="2.1428571"
         sodipodi:ry="2.1428571"
         d="m 43.92857,103.92857 c 0,1.18347 -0.95939,2.14286 -2.142857,2.14286 -1.183467,0 -2.142857,-0.95939 -2.142857,-2.14286 0,-1.18346 0.95939,-2.14285 2.142857,-2.14285 1.183467,0 2.142857,0.95939 2.142857,2.14285 z"
         transform="matrix(1.1285414,0,0,1.1285414,28.413153,867.44332)" />
      <path
         sodipodi:type="arc"
         style="fill:#000000;fill-opacity:1;fill-rule:nonzero;stroke:none"
         id="path3033"
         sodipodi:cx="41.785713"
         sodipodi:cy="103.92857"
         sodipodi:rx="2.1428571"
         sodipodi:ry="2.1428571"
         d="m 43.92857,103.92857 c 0,1.18347 -0.95939,2.14286 -2.142857,2.14286 -1.183467,0 -2.142857,-0.95939 -2.142857,-2.14286 0,-1.18346 0.95939,-2.14285 2.142857,-2.14285 1.183467,0 2.142857,0.95939 2.142857,2.14285 z"
         transform="matrix(1.1285414,0,0,1.1285414,40.425347,927.50429)" />
      <path
         transform="matrix(1.1285414,0,0,1.1285414,40.425347,915.4921)"
         d="m 43.92857,103.92857 c 0,1.18347 -0.95939,2.14286 -2.142857,2.14286 -1.183467,0 -2.142857,-0.95939 -2.142857,-2.14286 0,-1.18346 0.95939,-2.14285 2.142857,-2.14285 1.183467,0 2.142857,0.95939 2.142857,2.14285 z"
         sodipodi:ry="2.1428571"
         sodipodi:rx="2.1428571"
         sodipodi:cy="103.92857"
         sodipodi:cx="41.785713"
         id="path3035"
         style="fill:#000000;fill-opacity:1;fill-rule:nonzero;stroke:none"
         sodipodi:type="arc" />
      <path
         sodipodi:type="arc"
         style="fill:#000000;fill-opacity:1;fill-rule:nonzero;stroke:none"
         id="path3037"
         sodipodi:cx="41.785713"
         sodipodi:cy="103.92857"
         sodipodi:rx="2.1428571"
         sodipodi:ry="2.1428571"
         d="m 43.92857,103.92857 c 0,1.18347 -0.95939,2.14286 -2.142857,2.14286 -1.183467,0 -2.142857,-0.95939 -2.142857,-2.14286 0,-1.18346 0.95939,-2.14285 2.142857,-2.14285 1.183467,0 2.142857,0.95939 2.142857,2.14285 z"
         transform="matrix(1.1285414,0,0,1.1285414,40.425347,903.4799)" />
      <path
         transform="matrix(1.1285414,0,0,1.1285414,40.425347,891.46771)"
         d="m 43.92857,103.92857 c 0,1.18347 -0.95939,2.14286 -2.142857,2.14286 -1.183467,0 -2.142857,-0.95939 -2.142857,-2.14286 0,-1.18346 0.95939,-2.14285 2.142857,-2.14285 1.183467,0 2.142857,0.95939 2.142857,2.14285 z"
         sodipodi:ry="2.1428571"
         sodipodi:rx="2.1428571"
         sodipodi:cy="103.92857"
         sodipodi:cx="41.785713"
         id="path3039"
         style="fill:#000000;fill-opacity:1;fill-rule:nonzero;stroke:none"
         sodipodi:type="arc" />
      <path
         sodipodi:type="arc"
         style="fill:#000000;fill-opacity:1;fill-rule:nonzero;stroke:none"
         id="path3041"
         sodipodi:cx="41.785713"
         sodipodi:cy="103.92857"
         sodipodi:rx="2.1428571"
         sodipodi:ry="2.1428571"
         d="m 43.92857,103.92857 c 0,1.18347 -0.95939,2.14286 -2.142857,2.14286 -1.183467,0 -2.142857,-0.95939 -2.142857,-2.14286 0,-1.18346 0.95939,-2.14285 2.142857,-2.14285 1.183467,0 2.142857,0.95939 2.142857,2.14285 z"
         transform="matrix(1.1285414,0,0,1.1285414,40.425347,879.45551)" />
      <path
         transform="matrix(1.1285414,0,0,1.1285414,40.425347,867.44332)"
         d="m 43.92857,103.92857 c 0,1.18347 -0.95939,2.14286 -2.142857,2.14286 -1.183467,0 -2.142857,-0.95939 -2.142857,-2.14286 0,-1.18346 0.95939,-2.14285 2.142857,-2.14285 1.183467,0 2.142857,0.95939 2.142857,2.14285 z"
         sodipodi:ry="2.1428571"
         sodipodi:rx="2.1428571"
         sodipodi:cy="103.92857"
         sodipodi:cx="41.785713"
         id="path3043"
         style="fill:#000000;fill-opacity:1;fill-rule:nonzero;stroke:none"
         sodipodi:type="arc" />
      <path
         transform="matrix(1.1285414,0,0,1.1285414,52.437542,927.50429)"
         d="m 43.92857,103.92857 c 0,1.18347 -0.95939,2.14286 -2.142857,2.14286 -1.183467,0 -2.142857,-0.95939 -2.142857,-2.14286 0,-1.18346 0.95939,-2.14285 2.142857,-2.14285 1.183467,0 2.142857,0.95939 2.142857,2.14285 z"
         sodipodi:ry="2.1428571"
         sodipodi:rx="2.1428571"
         sodipodi:cy="103.92857"
         sodipodi:cx="41.785713"
         id="path3049"
         style="fill:#000000;fill-opacity:1;fill-rule:nonzero;stroke:none"
         sodipodi:type="arc" />
      <path
         sodipodi:type="arc"
         style="fill:#000000;fill-opacity:1;fill-rule:nonzero;stroke:none"
         id="path3051"
         sodipodi:cx="41.785713"
         sodipodi:cy="103.92857"
         sodipodi:rx="2.1428571"
         sodipodi:ry="2.1428571"
         d="m 43.92857,103.92857 c 0,1.18347 -0.95939,2.14286 -2.142857,2.14286 -1.183467,0 -2.142857,-0.95939 -2.142857,-2.14286 0,-1.18346 0.95939,-2.14285 2.142857,-2.14285 1.183467,0 2.142857,0.95939 2.142857,2.14285 z"
         transform="matrix(1.1285414,0,0,1.1285414,52.437542,915.4921)" />
      <path
         transform="matrix(1.1285414,0,0,1.1285414,52.437542,903.4799)"
         d="m 43.92857,103.92857 c 0,1.18347 -0.95939,2.14286 -2.142857,2.14286 -1.183467,0 -2.142857,-0.95939 -2.142857,-2.14286 0,-1.18346 0.95939,-2.14285 2.142857,-2.14285 1.183467,0 2.142857,0.95939 2.142857,2.14285 z"
         sodipodi:ry="2.1428571"
         sodipodi:rx="2.1428571"
         sodipodi:cy="103.92857"
         sodipodi:cx="41.785713"
         id="path3053"
         style="fill:#000000;fill-opacity:1;fill-rule:nonzero;stroke:none"
         sodipodi:type="arc" />
      <path
         sodipodi:type="arc"
         style="fill:#000000;fill-opacity:1;fill-rule:nonzero;stroke:none"
         id="path3055"
         sodipodi:cx="41.785713"
         sodipodi:cy="103.92857"
         sodipodi:rx="2.1428571"
         sodipodi:ry="2.1428571"
         d="m 43.92857,103.92857 c 0,1.18347 -0.95939,2.14286 -2.142857,2.14286 -1.183467,0 -2.142857,-0.95939 -2.142857,-2.14286 0,-1.18346 0.95939,-2.14285 2.142857,-2.14285 1.183467,0 2.142857,0.95939 2.142857,2.14285 z"
         transform="matrix(1.1285414,0,0,1.1285414,52.437542,891.46771)" />
      <path
         transform="matrix(1.1285414,0,0,1.1285414,52.437542,879.45551)"
         d="m 43.92857,103.92857 c 0,1.18347 -0.95939,2.14286 -2.142857,2.14286 -1.183467,0 -2.142857,-0.95939 -2.142857,-2.14286 0,-1.18346 0.95939,-2.14285 2.142857,-2.14285 1.183467,0 2.142857,0.95939 2.142857,2.14285 z"
         sodipodi:ry="2.1428571"
         sodipodi:rx="2.1428571"
         sodipodi:cy="103.92857"
         sodipodi:cx="41.785713"
         id="path3057"
         style="fill:#000000;fill-opacity:1;fill-rule:nonzero;stroke:none"
         sodipodi:type="arc" />
      <path
         sodipodi:type="arc"
         style="fill:#000000;fill-opacity:1;fill-rule:nonzero;stroke:none"
         id="path3059"
         sodipodi:cx="41.785713"
         sodipodi:cy="103.92857"
         sodipodi:rx="2.1428571"
         sodipodi:ry="2.1428571"
         d="m 43.92857,103.92857 c 0,1.18347 -0.95939,2.14286 -2.142857,2.14286 -1.183467,0 -2.142857,-0.95939 -2.142857,-2.14286 0,-1.18346 0.95939,-2.14285 2.142857,-2.14285 1.183467,0 2.142857,0.95939 2.142857,2.14285 z"
         transform="matrix(1.1285414,0,0,1.1285414,52.437542,867.44332)" />
      <path
         sodipodi:type="arc"
         style="fill:#000000;fill-opacity:1;fill-rule:nonzero;stroke:none"
         id="path3065"
         sodipodi:cx="41.785713"
         sodipodi:cy="103.92857"
         sodipodi:rx="2.1428571"
         sodipodi:ry="2.1428571"
         d="m 43.92857,103.92857 c 0,1.18347 -0.95939,2.14286 -2.142857,2.14286 -1.183467,0 -2.142857,-0.95939 -2.142857,-2.14286 0,-1.18346 0.95939,-2.14285 2.142857,-2.14285 1.183467,0 2.142857,0.95939 2.142857,2.14285 z"
         transform="matrix(1.1285414,0,0,1.1285414,64.449736,927.50429)" />
      <path
         transform="matrix(1.1285414,0,0,1.1285414,64.449736,915.4921)"
         d="m 43.92857,103.92857 c 0,1.18347 -0.95939,2.14286 -2.142857,2.14286 -1.183467,0 -2.142857,-0.95939 -2.142857,-2.14286 0,-1.18346 0.95939,-2.14285 2.142857,-2.14285 1.183467,0 2.142857,0.95939 2.142857,2.14285 z"
         sodipodi:ry="2.1428571"
         sodipodi:rx="2.1428571"
         sodipodi:cy="103.92857"
         sodipodi:cx="41.785713"
         id="path3067"
         style="fill:#000000;fill-opacity:1;fill-rule:nonzero;stroke:none"
         sodipodi:type="arc" />
      <path
         sodipodi:type="arc"
         style="fill:#000000;fill-opacity:1;fill-rule:nonzero;stroke:none"
         id="path3069"
         sodipodi:cx="41.785713"
         sodipodi:cy="103.92857"
         sodipodi:rx="2.1428571"
         sodipodi:ry="2.1428571"
         d="m 43.92857,103.92857 c 0,1.18347 -0.95939,2.14286 -2.142857,2.14286 -1.183467,0 -2.142857,-0.95939 -2.142857,-2.14286 0,-1.18346 0.95939,-2.14285 2.142857,-2.14285 1.183467,0 2.142857,0.95939 2.142857,2.14285 z"
         transform="matrix(1.1285414,0,0,1.1285414,64.449736,903.4799)" />
      <path
         transform="matrix(1.1285414,0,0,1.1285414,64.449736,891.46771)"
         d="m 43.92857,103.92857 c 0,1.18347 -0.95939,2.14286 -2.142857,2.14286 -1.183467,0 -2.142857,-0.95939 -2.142857,-2.14286 0,-1.18346 0.95939,-2.14285 2.142857,-2.14285 1.183467,0 2.142857,0.95939 2.142857,2.14285 z"
         sodipodi:ry="2.1428571"
         sodipodi:rx="2.1428571"
         sodipodi:cy="103.92857"
         sodipodi:cx="41.785713"
         id="path3071"
         style="fill:#000000;fill-opacity:1;fill-rule:nonzero;stroke:none"
         sodipodi:type="arc" />
      <path
         sodipodi:type="arc"
         style="fill:#000000;fill-opacity:1;fill-rule:nonzero;stroke:none"
         id="path3073"
         sodipodi:cx="41.785713"
         sodipodi:cy="103.92857"
         sodipodi:rx="2.1428571"
         sodipodi:ry="2.1428571"
         d="m 43.92857,103.92857 c 0,1.18347 -0.95939,2.14286 -2.142857,2.14286 -1.183467,0 -2.142857,-0.95939 -2.142857,-2.14286 0,-1.18346 0.95939,-2.14285 2.142857,-2.14285 1.183467,0 2.142857,0.95939 2.142857,2.14285 z"
         transform="matrix(1.1285414,0,0,1.1285414,64.449736,879.45551)" />
      <path
         transform="matrix(1.1285414,0,0,1.1285414,64.449736,867.44332)"
         d="m 43.92857,103.92857 c 0,1.18347 -0.95939,2.14286 -2.142857,2.14286 -1.183467,0 -2.142857,-0.95939 -2.142857,-2.14286 0,-1.18346 0.95939,-2.14285 2.142857,-2.14285 1.183467,0 2.142857,0.95939 2.142857,2.14285 z"
         sodipodi:ry="2.1428571"
         sodipodi:rx="2.1428571"
         sodipodi:cy="103.92857"
         sodipodi:cx="41.785713"
         id="path3075"
         style="fill:#000000;fill-opacity:1;fill-rule:nonzero;stroke:none"
         sodipodi:type="arc" />
      <path
         transform="matrix(1.1285414,0,0,1.1285414,64.449736,927.50429)"
         d="m 43.92857,103.92857 c 0,1.18347 -0.95939,2.14286 -2.142857,2.14286 -1.183467,0 -2.142857,-0.95939 -2.142857,-2.14286 0,-1.18346 0.95939,-2.14285 2.142857,-2.14285 1.183467,0 2.142857,0.95939 2.142857,2.14285 z"
         sodipodi:ry="2.1428571"
         sodipodi:rx="2.1428571"
         sodipodi:cy="103.92857"
         sodipodi:cx="41.785713"
         id="path3081"
         style="fill:#000000;fill-opacity:1;fill-rule:nonzero;stroke:none"
         sodipodi:type="arc" />
      <path
         sodipodi:type="arc"
         style="fill:#000000;fill-opacity:1;fill-rule:nonzero;stroke:none"
         id="path3083"
         sodipodi:cx="41.785713"
         sodipodi:cy="103.92857"
         sodipodi:rx="2.1428571"
         sodipodi:ry="2.1428571"
         d="m 43.92857,103.92857 c 0,1.18347 -0.95939,2.14286 -2.142857,2.14286 -1.183467,0 -2.142857,-0.95939 -2.142857,-2.14286 0,-1.18346 0.95939,-2.14285 2.142857,-2.14285 1.183467,0 2.142857,0.95939 2.142857,2.14285 z"
         transform="matrix(1.1285414,0,0,1.1285414,64.449736,915.4921)" />
      <path
         transform="matrix(1.1285414,0,0,1.1285414,64.449736,903.4799)"
         d="m 43.92857,103.92857 c 0,1.18347 -0.95939,2.14286 -2.142857,2.14286 -1.183467,0 -2.142857,-0.95939 -2.142857,-2.14286 0,-1.18346 0.95939,-2.14285 2.142857,-2.14285 1.183467,0 2.142857,0.95939 2.142857,2.14285 z"
         sodipodi:ry="2.1428571"
         sodipodi:rx="2.1428571"
         sodipodi:cy="103.92857"
         sodipodi:cx="41.785713"
         id="path3085"
         style="fill:#000000;fill-opacity:1;fill-rule:nonzero;stroke:none"
         sodipodi:type="arc" />
      <path
         sodipodi:type="arc"
         style="fill:#000000;fill-opacity:1;fill-rule:nonzero;stroke:none"
         id="path3087"
         sodipodi:cx="41.785713"
         sodipodi:cy="103.92857"
         sodipodi:rx="2.1428571"
         sodipodi:ry="2.1428571"
         d="m 43.92857,103.92857 c 0,1.18347 -0.95939,2.14286 -2.142857,2.14286 -1.183467,0 -2.142857,-0.95939 -2.142857,-2.14286 0,-1.18346 0.95939,-2.14285 2.142857,-2.14285 1.183467,0 2.142857,0.95939 2.142857,2.14285 z"
         transform="matrix(1.1285414,0,0,1.1285414,64.449736,891.46771)" />
      <path
         transform="matrix(1.1285414,0,0,1.1285414,64.449736,879.45551)"
         d="m 43.92857,103.92857 c 0,1.18347 -0.95939,2.14286 -2.142857,2.14286 -1.183467,0 -2.142857,-0.95939 -2.142857,-2.14286 0,-1.18346 0.95939,-2.14285 2.142857,-2.14285 1.183467,0 2.142857,0.95939 2.142857,2.14285 z"
         sodipodi:ry="2.1428571"
         sodipodi:rx="2.1428571"
         sodipodi:cy="103.92857"
         sodipodi:cx="41.785713"
         id="path3089"
         style="fill:#000000;fill-opacity:1;fill-rule:nonzero;stroke:none"
         sodipodi:type="arc" />
      <path
         sodipodi:type="arc"
         style="fill:#000000;fill-opacity:1;fill-rule:nonzero;stroke:none"
         id="path3091"
         sodipodi:cx="41.785713"
         sodipodi:cy="103.92857"
         sodipodi:rx="2.1428571"
         sodipodi:ry="2.1428571"
         d="m 43.92857,103.92857 c 0,1.18347 -0.95939,2.14286 -2.142857,2.14286 -1.183467,0 -2.142857,-0.95939 -2.142857,-2.14286 0,-1.18346 0.95939,-2.14285 2.142857,-2.14285 1.183467,0 2.142857,0.95939 2.142857,2.14285 z"
         transform="matrix(1.1285414,0,0,1.1285414,64.449736,867.44332)" />
      <path
         transform="matrix(1.1285414,0,0,1.1285414,76.461929,927.50429)"
         d="m 43.92857,103.92857 c 0,1.18347 -0.95939,2.14286 -2.142857,2.14286 -1.183467,0 -2.142857,-0.95939 -2.142857,-2.14286 0,-1.18346 0.95939,-2.14285 2.142857,-2.14285 1.183467,0 2.142857,0.95939 2.142857,2.14285 z"
         sodipodi:ry="2.1428571"
         sodipodi:rx="2.1428571"
         sodipodi:cy="103.92857"
         sodipodi:cx="41.785713"
         id="path3097"
         style="fill:#000000;fill-opacity:1;fill-rule:nonzero;stroke:none"
         sodipodi:type="arc" />
      <path
         sodipodi:type="arc"
         style="fill:#000000;fill-opacity:1;fill-rule:nonzero;stroke:none"
         id="path3099"
         sodipodi:cx="41.785713"
         sodipodi:cy="103.92857"
         sodipodi:rx="2.1428571"
         sodipodi:ry="2.1428571"
         d="m 43.92857,103.92857 c 0,1.18347 -0.95939,2.14286 -2.142857,2.14286 -1.183467,0 -2.142857,-0.95939 -2.142857,-2.14286 0,-1.18346 0.95939,-2.14285 2.142857,-2.14285 1.183467,0 2.142857,0.95939 2.142857,2.14285 z"
         transform="matrix(1.1285414,0,0,1.1285414,76.461929,915.4921)" />
      <path
         transform="matrix(1.1285414,0,0,1.1285414,76.461929,903.4799)"
         d="m 43.92857,103.92857 c 0,1.18347 -0.95939,2.14286 -2.142857,2.14286 -1.183467,0 -2.142857,-0.95939 -2.142857,-2.14286 0,-1.18346 0.95939,-2.14285 2.142857,-2.14285 1.183467,0 2.142857,0.95939 2.142857,2.14285 z"
         sodipodi:ry="2.1428571"
         sodipodi:rx="2.1428571"
         sodipodi:cy="103.92857"
         sodipodi:cx="41.785713"
         id="path3101"
         style="fill:#000000;fill-opacity:1;fill-rule:nonzero;stroke:none"
         sodipodi:type="arc" />
      <path
         sodipodi:type="arc"
         style="fill:#000000;fill-opacity:1;fill-rule:nonzero;stroke:none"
         id="path3103"
         sodipodi:cx="41.785713"
         sodipodi:cy="103.92857"
         sodipodi:rx="2.1428571"
         sodipodi:ry="2.1428571"
         d="m 43.92857,103.92857 c 0,1.18347 -0.95939,2.14286 -2.142857,2.14286 -1.183467,0 -2.142857,-0.95939 -2.142857,-2.14286 0,-1.18346 0.95939,-2.14285 2.142857,-2.14285 1.183467,0 2.142857,0.95939 2.142857,2.14285 z"
         transform="matrix(1.1285414,0,0,1.1285414,76.461929,891.46771)" />
      <path
         transform="matrix(1.1285414,0,0,1.1285414,76.461929,879.45551)"
         d="m 43.92857,103.92857 c 0,1.18347 -0.95939,2.14286 -2.142857,2.14286 -1.183467,0 -2.142857,-0.95939 -2.142857,-2.14286 0,-1.18346 0.95939,-2.14285 2.142857,-2.14285 1.183467,0 2.142857,0.95939 2.142857,2.14285 z"
         sodipodi:ry="2.1428571"
         sodipodi:rx="2.1428571"
         sodipodi:cy="103.92857"
         sodipodi:cx="41.785713"
         id="path3105"
         style="fill:#000000;fill-opacity:1;fill-rule:nonzero;stroke:none"
         sodipodi:type="arc" />
      <path
         sodipodi:type="arc"
         style="fill:#000000;fill-opacity:1;fill-rule:nonzero;stroke:none"
         id="path3107"
         sodipodi:cx="41.785713"
         sodipodi:cy="103.92857"
         sodipodi:rx="2.1428571"
         sodipodi:ry="2.1428571"
         d="m 43.92857,103.92857 c 0,1.18347 -0.95939,2.14286 -2.142857,2.14286 -1.183467,0 -2.142857,-0.95939 -2.142857,-2.14286 0,-1.18346 0.95939,-2.14285 2.142857,-2.14285 1.183467,0 2.142857,0.95939 2.142857,2.14285 z"
         transform="matrix(1.1285414,0,0,1.1285414,76.461929,867.44332)" />
      <path
         sodipodi:type="arc"
         style="fill:#000000;fill-opacity:1;fill-rule:nonzero;stroke:none"
         id="path3113"
         sodipodi:cx="41.785713"
         sodipodi:cy="103.92857"
         sodipodi:rx="2.1428571"
         sodipodi:ry="2.1428571"
         d="m 43.92857,103.92857 c 0,1.18347 -0.95939,2.14286 -2.142857,2.14286 -1.183467,0 -2.142857,-0.95939 -2.142857,-2.14286 0,-1.18346 0.95939,-2.14285 2.142857,-2.14285 1.183467,0 2.142857,0.95939 2.142857,2.14285 z"
         transform="matrix(1.1285414,0,0,1.1285414,76.461929,927.50429)" />
      <path
         transform="matrix(1.1285414,0,0,1.1285414,76.461929,915.4921)"
         d="m 43.92857,103.92857 c 0,1.18347 -0.95939,2.14286 -2.142857,2.14286 -1.183467,0 -2.142857,-0.95939 -2.142857,-2.14286 0,-1.18346 0.95939,-2.14285 2.142857,-2.14285 1.183467,0 2.142857,0.95939 2.142857,2.14285 z"
         sodipodi:ry="2.1428571"
         sodipodi:rx="2.1428571"
         sodipodi:cy="103.92857"
         sodipodi:cx="41.785713"
         id="path3115"
         style="fill:#000000;fill-opacity:1;fill-rule:nonzero;stroke:none"
         sodipodi:type="arc" />
      <path
         sodipodi:type="arc"
         style="fill:#000000;fill-opacity:1;fill-rule:nonzero;stroke:none"
         id="path3117"
         sodipodi:cx="41.785713"
         sodipodi:cy="103.92857"
         sodipodi:rx="2.1428571"
         sodipodi:ry="2.1428571"
         d="m 43.92857,103.92857 c 0,1.18347 -0.95939,2.14286 -2.142857,2.14286 -1.183467,0 -2.142857,-0.95939 -2.142857,-2.14286 0,-1.18346 0.95939,-2.14285 2.142857,-2.14285 1.183467,0 2.142857,0.95939 2.142857,2.14285 z"
         transform="matrix(1.1285414,0,0,1.1285414,76.461929,903.4799)" />
      <path
         transform="matrix(1.1285414,0,0,1.1285414,76.461929,891.46771)"
         d="m 43.92857,103.92857 c 0,1.18347 -0.95939,2.14286 -2.142857,2.14286 -1.183467,0 -2.142857,-0.95939 -2.142857,-2.14286 0,-1.18346 0.95939,-2.14285 2.142857,-2.14285 1.183467,0 2.142857,0.95939 2.142857,2.14285 z"
         sodipodi:ry="2.1428571"
         sodipodi:rx="2.1428571"
         sodipodi:cy="103.92857"
         sodipodi:cx="41.785713"
         id="path3119"
         style="fill:#000000;fill-opacity:1;fill-rule:nonzero;stroke:none"
         sodipodi:type="arc" />
      <path
         sodipodi:type="arc"
         style="fill:#000000;fill-opacity:1;fill-rule:nonzero;stroke:none"
         id="path3121"
         sodipodi:cx="41.785713"
         sodipodi:cy="103.92857"
         sodipodi:rx="2.1428571"
         sodipodi:ry="2.1428571"
         d="m 43.92857,103.92857 c 0,1.18347 -0.95939,2.14286 -2.142857,2.14286 -1.183467,0 -2.142857,-0.95939 -2.142857,-2.14286 0,-1.18346 0.95939,-2.14285 2.142857,-2.14285 1.183467,0 2.142857,0.95939 2.142857,2.14285 z"
         transform="matrix(1.1285414,0,0,1.1285414,76.461929,879.45551)" />
      <path
         transform="matrix(1.1285414,0,0,1.1285414,76.461929,867.44332)"
         d="m 43.92857,103.92857 c 0,1.18347 -0.95939,2.14286 -2.142857,2.14286 -1.183467,0 -2.142857,-0.95939 -2.142857,-2.14286 0,-1.18346 0.95939,-2.14285 2.142857,-2.14285 1.183467,0 2.142857,0.95939 2.142857,2.14285 z"
         sodipodi:ry="2.1428571"
         sodipodi:rx="2.1428571"
         sodipodi:cy="103.92857"
         sodipodi:cx="41.785713"
         id="path3123"
         style="fill:#000000;fill-opacity:1;fill-rule:nonzero;stroke:none"
         sodipodi:type="arc" />
      <path
         sodipodi:type="arc"
         style="fill:#000000;fill-opacity:1;fill-rule:nonzero;stroke:none"
         id="path3129"
         sodipodi:cx="41.785713"
         sodipodi:cy="103.92857"
         sodipodi:rx="2.1428571"
         sodipodi:ry="2.1428571"
         d="m 43.92857,103.92857 c 0,1.18347 -0.95939,2.14286 -2.142857,2.14286 -1.183467,0 -2.142857,-0.95939 -2.142857,-2.14286 0,-1.18346 0.95939,-2.14285 2.142857,-2.14285 1.183467,0 2.142857,0.95939 2.142857,2.14285 z"
         transform="matrix(1.1285414,0,0,1.1285414,88.474119,927.50429)" />
      <path
         transform="matrix(1.1285414,0,0,1.1285414,88.474119,915.4921)"
         d="m 43.92857,103.92857 c 0,1.18347 -0.95939,2.14286 -2.142857,2.14286 -1.183467,0 -2.142857,-0.95939 -2.142857,-2.14286 0,-1.18346 0.95939,-2.14285 2.142857,-2.14285 1.183467,0 2.142857,0.95939 2.142857,2.14285 z"
         sodipodi:ry="2.1428571"
         sodipodi:rx="2.1428571"
         sodipodi:cy="103.92857"
         sodipodi:cx="41.785713"
         id="path3131"
         style="fill:#000000;fill-opacity:1;fill-rule:nonzero;stroke:none"
         sodipodi:type="arc" />
      <path
         sodipodi:type="arc"
         style="fill:#000000;fill-opacity:1;fill-rule:nonzero;stroke:none"
         id="path3133"
         sodipodi:cx="41.785713"
         sodipodi:cy="103.92857"
         sodipodi:rx="2.1428571"
         sodipodi:ry="2.1428571"
         d="m 43.92857,103.92857 c 0,1.18347 -0.95939,2.14286 -2.142857,2.14286 -1.183467,0 -2.142857,-0.95939 -2.142857,-2.14286 0,-1.18346 0.95939,-2.14285 2.142857,-2.14285 1.183467,0 2.142857,0.95939 2.142857,2.14285 z"
         transform="matrix(1.1285414,0,0,1.1285414,88.474119,903.4799)" />
      <path
         transform="matrix(1.1285414,0,0,1.1285414,88.474119,891.46771)"
         d="m 43.92857,103.92857 c 0,1.18347 -0.95939,2.14286 -2.142857,2.14286 -1.183467,0 -2.142857,-0.95939 -2.142857,-2.14286 0,-1.18346 0.95939,-2.14285 2.142857,-2.14285 1.183467,0 2.142857,0.95939 2.142857,2.14285 z"
         sodipodi:ry="2.1428571"
         sodipodi:rx="2.1428571"
         sodipodi:cy="103.92857"
         sodipodi:cx="41.785713"
         id="path3135"
         style="fill:#000000;fill-opacity:1;fill-rule:nonzero;stroke:none"
         sodipodi:type="arc" />
      <path
         sodipodi:type="arc"
         style="fill:#000000;fill-opacity:1;fill-rule:nonzero;stroke:none"
         id="path3137"
         sodipodi:cx="41.785713"
         sodipodi:cy="103.92857"
         sodipodi:rx="2.1428571"
         sodipodi:ry="2.1428571"
         d="m 43.92857,103.92857 c 0,1.18347 -0.95939,2.14286 -2.142857,2.14286 -1.183467,0 -2.142857,-0.95939 -2.142857,-2.14286 0,-1.18346 0.95939,-2.14285 2.142857,-2.14285 1.183467,0 2.142857,0.95939 2.142857,2.14285 z"
         transform="matrix(1.1285414,0,0,1.1285414,88.474119,879.45551)" />
      <path
         transform="matrix(1.1285414,0,0,1.1285414,88.474119,867.44332)"
         d="m 43.92857,103.92857 c 0,1.18347 -0.95939,2.14286 -2.142857,2.14286 -1.183467,0 -2.142857,-0.95939 -2.142857,-2.14286 0,-1.18346 0.95939,-2.14285 2.142857,-2.14285 1.183467,0 2.142857,0.95939 2.142857,2.14285 z"
         sodipodi:ry="2.1428571"
         sodipodi:rx="2.1428571"
         sodipodi:cy="103.92857"
         sodipodi:cx="41.785713"
         id="path3139"
         style="fill:#000000;fill-opacity:1;fill-rule:nonzero;stroke:none"
         sodipodi:type="arc" />
      <path
         transform="matrix(1.1285414,0,0,1.1285414,88.474119,927.50429)"
         d="m 43.92857,103.92857 c 0,1.18347 -0.95939,2.14286 -2.142857,2.14286 -1.183467,0 -2.142857,-0.95939 -2.142857,-2.14286 0,-1.18346 0.95939,-2.14285 2.142857,-2.14285 1.183467,0 2.142857,0.95939 2.142857,2.14285 z"
         sodipodi:ry="2.1428571"
         sodipodi:rx="2.1428571"
         sodipodi:cy="103.92857"
         sodipodi:cx="41.785713"
         id="path3145"
         style="fill:#000000;fill-opacity:1;fill-rule:nonzero;stroke:none"
         sodipodi:type="arc" />
      <path
         sodipodi:type="arc"
         style="fill:#000000;fill-opacity:1;fill-rule:nonzero;stroke:none"
         id="path3147"
         sodipodi:cx="41.785713"
         sodipodi:cy="103.92857"
         sodipodi:rx="2.1428571"
         sodipodi:ry="2.1428571"
         d="m 43.92857,103.92857 c 0,1.18347 -0.95939,2.14286 -2.142857,2.14286 -1.183467,0 -2.142857,-0.95939 -2.142857,-2.14286 0,-1.18346 0.95939,-2.14285 2.142857,-2.14285 1.183467,0 2.142857,0.95939 2.142857,2.14285 z"
         transform="matrix(1.1285414,0,0,1.1285414,88.474119,915.4921)" />
      <path
         transform="matrix(1.1285414,0,0,1.1285414,88.474119,903.4799)"
         d="m 43.92857,103.92857 c 0,1.18347 -0.95939,2.14286 -2.142857,2.14286 -1.183467,0 -2.142857,-0.95939 -2.142857,-2.14286 0,-1.18346 0.95939,-2.14285 2.142857,-2.14285 1.183467,0 2.142857,0.95939 2.142857,2.14285 z"
         sodipodi:ry="2.1428571"
         sodipodi:rx="2.1428571"
         sodipodi:cy="103.92857"
         sodipodi:cx="41.785713"
         id="path3149"
         style="fill:#000000;fill-opacity:1;fill-rule:nonzero;stroke:none"
         sodipodi:type="arc" />
      <path
         sodipodi:type="arc"
         style="fill:#000000;fill-opacity:1;fill-rule:nonzero;stroke:none"
         id="path3151"
         sodipodi:cx="41.785713"
         sodipodi:cy="103.92857"
         sodipodi:rx="2.1428571"
         sodipodi:ry="2.1428571"
         d="m 43.92857,103.92857 c 0,1.18347 -0.95939,2.14286 -2.142857,2.14286 -1.183467,0 -2.142857,-0.95939 -2.142857,-2.14286 0,-1.18346 0.95939,-2.14285 2.142857,-2.14285 1.183467,0 2.142857,0.95939 2.142857,2.14285 z"
         transform="matrix(1.1285414,0,0,1.1285414,88.474119,891.46771)" />
      <path
         transform="matrix(1.1285414,0,0,1.1285414,88.474119,879.45551)"
         d="m 43.92857,103.92857 c 0,1.18347 -0.95939,2.14286 -2.142857,2.14286 -1.183467,0 -2.142857,-0.95939 -2.142857,-2.14286 0,-1.18346 0.95939,-2.14285 2.142857,-2.14285 1.183467,0 2.142857,0.95939 2.142857,2.14285 z"
         sodipodi:ry="2.1428571"
         sodipodi:rx="2.1428571"
         sodipodi:cy="103.92857"
         sodipodi:cx="41.785713"
         id="path3153"
         style="fill:#000000;fill-opacity:1;fill-rule:nonzero;stroke:none"
         sodipodi:type="arc" />
      <path
         sodipodi:type="arc"
         style="fill:#000000;fill-opacity:1;fill-rule:nonzero;stroke:none"
         id="path3155"
         sodipodi:cx="41.785713"
         sodipodi:cy="103.92857"
         sodipodi:rx="2.1428571"
         sodipodi:ry="2.1428571"
         d="m 43.92857,103.92857 c 0,1.18347 -0.95939,2.14286 -2.142857,2.14286 -1.183467,0 -2.142857,-0.95939 -2.142857,-2.14286 0,-1.18346 0.95939,-2.14285 2.142857,-2.14285 1.183467,0 2.142857,0.95939 2.142857,2.14285 z"
         transform="matrix(1.1285414,0,0,1.1285414,88.474119,867.44332)" />
      <path
         transform="matrix(1.1285414,0,0,1.1285414,100.48632,927.50429)"
         d="m 43.92857,103.92857 c 0,1.18347 -0.95939,2.14286 -2.142857,2.14286 -1.183467,0 -2.142857,-0.95939 -2.142857,-2.14286 0,-1.18346 0.95939,-2.14285 2.142857,-2.14285 1.183467,0 2.142857,0.95939 2.142857,2.14285 z"
         sodipodi:ry="2.1428571"
         sodipodi:rx="2.1428571"
         sodipodi:cy="103.92857"
         sodipodi:cx="41.785713"
         id="path3161"
         style="fill:#000000;fill-opacity:1;fill-rule:nonzero;stroke:none"
         sodipodi:type="arc" />
      <path
         sodipodi:type="arc"
         style="fill:#000000;fill-opacity:1;fill-rule:nonzero;stroke:none"
         id="path3163"
         sodipodi:cx="41.785713"
         sodipodi:cy="103.92857"
         sodipodi:rx="2.1428571"
         sodipodi:ry="2.1428571"
         d="m 43.92857,103.92857 c 0,1.18347 -0.95939,2.14286 -2.142857,2.14286 -1.183467,0 -2.142857,-0.95939 -2.142857,-2.14286 0,-1.18346 0.95939,-2.14285 2.142857,-2.14285 1.183467,0 2.142857,0.95939 2.142857,2.14285 z"
         transform="matrix(1.1285414,0,0,1.1285414,100.48632,915.4921)" />
      <path
         transform="matrix(1.1285414,0,0,1.1285414,100.48632,903.4799)"
         d="m 43.92857,103.92857 c 0,1.18347 -0.95939,2.14286 -2.142857,2.14286 -1.183467,0 -2.142857,-0.95939 -2.142857,-2.14286 0,-1.18346 0.95939,-2.14285 2.142857,-2.14285 1.183467,0 2.142857,0.95939 2.142857,2.14285 z"
         sodipodi:ry="2.1428571"
         sodipodi:rx="2.1428571"
         sodipodi:cy="103.92857"
         sodipodi:cx="41.785713"
         id="path3165"
         style="fill:#000000;fill-opacity:1;fill-rule:nonzero;stroke:none"
         sodipodi:type="arc" />
      <path
         sodipodi:type="arc"
         style="fill:#000000;fill-opacity:1;fill-rule:nonzero;stroke:none"
         id="path3167"
         sodipodi:cx="41.785713"
         sodipodi:cy="103.92857"
         sodipodi:rx="2.1428571"
         sodipodi:ry="2.1428571"
         d="m 43.92857,103.92857 c 0,1.18347 -0.95939,2.14286 -2.142857,2.14286 -1.183467,0 -2.142857,-0.95939 -2.142857,-2.14286 0,-1.18346 0.95939,-2.14285 2.142857,-2.14285 1.183467,0 2.142857,0.95939 2.142857,2.14285 z"
         transform="matrix(1.1285414,0,0,1.1285414,100.48632,891.46771)" />
      <path
         transform="matrix(1.1285414,0,0,1.1285414,100.48632,879.45551)"
         d="m 43.92857,103.92857 c 0,1.18347 -0.95939,2.14286 -2.142857,2.14286 -1.183467,0 -2.142857,-0.95939 -2.142857,-2.14286 0,-1.18346 0.95939,-2.14285 2.142857,-2.14285 1.183467,0 2.142857,0.95939 2.142857,2.14285 z"
         sodipodi:ry="2.1428571"
         sodipodi:rx="2.1428571"
         sodipodi:cy="103.92857"
         sodipodi:cx="41.785713"
         id="path3169"
         style="fill:#000000;fill-opacity:1;fill-rule:nonzero;stroke:none"
         sodipodi:type="arc" />
      <path
         sodipodi:type="arc"
         style="fill:#000000;fill-opacity:1;fill-rule:nonzero;stroke:none"
         id="path3171"
         sodipodi:cx="41.785713"
         sodipodi:cy="103.92857"
         sodipodi:rx="2.1428571"
         sodipodi:ry="2.1428571"
         d="m 43.92857,103.92857 c 0,1.18347 -0.95939,2.14286 -2.142857,2.14286 -1.183467,0 -2.142857,-0.95939 -2.142857,-2.14286 0,-1.18346 0.95939,-2.14285 2.142857,-2.14285 1.183467,0 2.142857,0.95939 2.142857,2.14285 z"
         transform="matrix(1.1285414,0,0,1.1285414,100.48632,867.44332)" />
      <path
         sodipodi:type="arc"
         style="fill:#000000;fill-opacity:1;fill-rule:nonzero;stroke:none"
         id="path3177"
         sodipodi:cx="41.785713"
         sodipodi:cy="103.92857"
         sodipodi:rx="2.1428571"
         sodipodi:ry="2.1428571"
         d="m 43.92857,103.92857 c 0,1.18347 -0.95939,2.14286 -2.142857,2.14286 -1.183467,0 -2.142857,-0.95939 -2.142857,-2.14286 0,-1.18346 0.95939,-2.14285 2.142857,-2.14285 1.183467,0 2.142857,0.95939 2.142857,2.14285 z"
         transform="matrix(1.1285414,0,0,1.1285414,100.48632,927.50429)" />
      <path
         transform="matrix(1.1285414,0,0,1.1285414,100.48632,915.4921)"
         d="m 43.92857,103.92857 c 0,1.18347 -0.95939,2.14286 -2.142857,2.14286 -1.183467,0 -2.142857,-0.95939 -2.142857,-2.14286 0,-1.18346 0.95939,-2.14285 2.142857,-2.14285 1.183467,0 2.142857,0.95939 2.142857,2.14285 z"
         sodipodi:ry="2.1428571"
         sodipodi:rx="2.1428571"
         sodipodi:cy="103.92857"
         sodipodi:cx="41.785713"
         id="path3179"
         style="fill:#000000;fill-opacity:1;fill-rule:nonzero;stroke:none"
         sodipodi:type="arc" />
      <path
         sodipodi:type="arc"
         style="fill:#000000;fill-opacity:1;fill-rule:nonzero;stroke:none"
         id="path3181"
         sodipodi:cx="41.785713"
         sodipodi:cy="103.92857"
         sodipodi:rx="2.1428571"
         sodipodi:ry="2.1428571"
         d="m 43.92857,103.92857 c 0,1.18347 -0.95939,2.14286 -2.142857,2.14286 -1.183467,0 -2.142857,-0.95939 -2.142857,-2.14286 0,-1.18346 0.95939,-2.14285 2.142857,-2.14285 1.183467,0 2.142857,0.95939 2.142857,2.14285 z"
         transform="matrix(1.1285414,0,0,1.1285414,100.48632,903.4799)" />
      <path
         transform="matrix(1.1285414,0,0,1.1285414,100.48632,891.46771)"
         d="m 43.92857,103.92857 c 0,1.18347 -0.95939,2.14286 -2.142857,2.14286 -1.183467,0 -2.142857,-0.95939 -2.142857,-2.14286 0,-1.18346 0.95939,-2.14285 2.142857,-2.14285 1.183467,0 2.142857,0.95939 2.142857,2.14285 z"
         sodipodi:ry="2.1428571"
         sodipodi:rx="2.1428571"
         sodipodi:cy="103.92857"
         sodipodi:cx="41.785713"
         id="path3183"
         style="fill:#000000;fill-opacity:1;fill-rule:nonzero;stroke:none"
         sodipodi:type="arc" />
      <path
         sodipodi:type="arc"
         style="fill:#000000;fill-opacity:1;fill-rule:nonzero;stroke:none"
         id="path3185"
         sodipodi:cx="41.785713"
         sodipodi:cy="103.92857"
         sodipodi:rx="2.1428571"
         sodipodi:ry="2.1428571"
         d="m 43.92857,103.92857 c 0,1.18347 -0.95939,2.14286 -2.142857,2.14286 -1.183467,0 -2.142857,-0.95939 -2.142857,-2.14286 0,-1.18346 0.95939,-2.14285 2.142857,-2.14285 1.183467,0 2.142857,0.95939 2.142857,2.14285 z"
         transform="matrix(1.1285414,0,0,1.1285414,100.48632,879.45551)" />
      <path
         transform="matrix(1.1285414,0,0,1.1285414,100.48632,867.44332)"
         d="m 43.92857,103.92857 c 0,1.18347 -0.95939,2.14286 -2.142857,2.14286 -1.183467,0 -2.142857,-0.95939 -2.142857,-2.14286 0,-1.18346 0.95939,-2.14285 2.142857,-2.14285 1.183467,0 2.142857,0.95939 2.142857,2.14285 z"
         sodipodi:ry="2.1428571"
         sodipodi:rx="2.1428571"
         sodipodi:cy="103.92857"
         sodipodi:cx="41.785713"
         id="path3187"
         style="fill:#000000;fill-opacity:1;fill-rule:nonzero;stroke:none"
         sodipodi:type="arc" />
      <path
         transform="translate(0,872.35975)"
         inkscape:connector-curvature="0"
         id="path3343"
         d="m 51.51778,147.92766 0,24.24366 96.46957,0 0,-11.86929 -84.095201,0 0,-11.8693"
         style="fill:none;stroke:#000000;stroke-width:1px;stroke-linecap:butt;stroke-linejoin:miter;stroke-opacity:1" />
      <path
         transform="translate(0,872.35975)"
         inkscape:connector-curvature="0"
         id="path3341"
         d="m 51.071429,148.21429 12.5,0"
         style="fill:none;stroke:#ff0000;stroke-width:1.29999995;stroke-linecap:butt;stroke-linejoin:miter;stroke-miterlimit:4;stroke-opacity:1;stroke-dasharray:1.3, 1.3;stroke-dashoffset:0" />
    </g>
    <text
       xml:space="preserve"
       style="font-size:12px;font-style:normal;font-variant:normal;font-weight:normal;font-stretch:normal;text-align:start;line-height:125%;letter-spacing:0px;word-spacing:0px;writing-mode:lr-tb;text-anchor:start;fill:#000000;fill-opacity:1;stroke:none;font-family:Sans;-inkscape-font-specification:Sans"
       x="6.0609155"
       y="973.56787"
       id="text4240"
       sodipodi:linespacing="125%"><tspan
         sodipodi:role="line"
         x="6.0609155"
         y="973.56787"
         id="tspan4244">delete</tspan><tspan
         sodipodi:role="line"
         x="6.0609155"
         y="988.56787"
         id="tspan4248">edge</tspan></text>
    <text
       xml:space="preserve"
       style="font-size:12px;font-style:normal;font-variant:normal;font-weight:normal;font-stretch:normal;text-align:start;line-height:125%;letter-spacing:0px;word-spacing:0px;writing-mode:lr-tb;text-anchor:start;fill:#000000;fill-opacity:1;stroke:none;font-family:Sans;-inkscape-font-specification:Sans"
       x="0.24008285"
       y="1029.6312"
       id="text4250"
       sodipodi:linespacing="125%"><tspan
         sodipodi:role="line"
         id="tspan4252"
         x="0.24008285"
         y="1029.6312">add edges</tspan></text>
    <path
       style="fill:none;stroke:#000000;stroke-width:1px;stroke-linecap:butt;stroke-linejoin:miter;stroke-opacity:1;marker-end:url(#Arrow1Mend)"
       d="m 64.397225,1025.8433 15.404826,-4.0407"
       id="path4254"
       inkscape:connector-curvature="0"
       sodipodi:nodetypes="cc" />
    <path
       sodipodi:nodetypes="cc"
       inkscape:connector-curvature="0"
       id="path4886"
       d="M 40.911178,978.11354 86.115505,988.4676"
       style="fill:none;stroke:#000000;stroke-width:1px;stroke-linecap:butt;stroke-linejoin:miter;stroke-opacity:1;marker-end:url(#Arrow1Mend)" />
  </g>
</svg>
