<?xml version="1.0" encoding="UTF-8" standalone="no"?>
<!-- Created with Inkscape (http://www.inkscape.org/) -->

<svg
   xmlns:dc="http://purl.org/dc/elements/1.1/"
   xmlns:cc="http://creativecommons.org/ns#"
   xmlns:rdf="http://www.w3.org/1999/02/22-rdf-syntax-ns#"
   xmlns:svg="http://www.w3.org/2000/svg"
   xmlns="http://www.w3.org/2000/svg"
   xmlns:sodipodi="http://sodipodi.sourceforge.net/DTD/sodipodi-0.dtd"
   xmlns:inkscape="http://www.inkscape.org/namespaces/inkscape"
   width="318.89764"
   height="177.16534"
   id="svg2"
   version="1.1"
   inkscape:version="0.48.5 r10040"
   sodipodi:docname="swapex.svg">
  <defs
     id="defs4" />
  <sodipodi:namedview
     id="base"
     pagecolor="#ffffff"
     bordercolor="#666666"
     borderopacity="1.0"
     inkscape:pageopacity="0.0"
     inkscape:pageshadow="2"
     inkscape:zoom="2.8"
     inkscape:cx="164.51603"
     inkscape:cy="69.059137"
     inkscape:document-units="px"
     inkscape:current-layer="layer1"
     showgrid="false"
     units="cm"
     inkscape:window-width="1596"
     inkscape:window-height="861"
     inkscape:window-x="0"
     inkscape:window-y="18"
     inkscape:window-maximized="0" />
  <metadata
     id="metadata7">
    <rdf:RDF>
      <cc:Work
         rdf:about="">
        <dc:format>image/svg+xml</dc:format>
        <dc:type
           rdf:resource="http://purl.org/dc/dcmitype/StillImage" />
        <dc:title></dc:title>
      </cc:Work>
    </rdf:RDF>
  </metadata>
  <g
     inkscape:label="Layer 1"
     inkscape:groupmode="layer"
     id="layer1"
     transform="translate(0,-875.19552)">
    <path
       sodipodi:type="arc"
       style="fill:none;stroke:#000000;stroke-width:1.5;stroke-linecap:butt;stroke-miterlimit:4;stroke-opacity:1;stroke-dasharray:none;stroke-dashoffset:0"
       id="path2985"
       sodipodi:cx="22.98097"
       sodipodi:cy="22.20401"
       sodipodi:rx="6.5659914"
       sodipodi:ry="6.5659914"
       d="m 29.546962,22.20401 a 6.5659914,6.5659914 0 1 1 -13.131983,0 6.5659914,6.5659914 0 1 1 13.131983,0 z"
       transform="translate(48.476964,877.63073)" />
    <path
       transform="translate(76.860964,877.63073)"
       d="m 29.546962,22.20401 a 6.5659914,6.5659914 0 1 1 -13.131983,0 6.5659914,6.5659914 0 1 1 13.131983,0 z"
       sodipodi:ry="6.5659914"
       sodipodi:rx="6.5659914"
       sodipodi:cy="22.20401"
       sodipodi:cx="22.98097"
       id="path2987"
       style="fill:none;stroke:#000000;stroke-width:1.5;stroke-linecap:butt;stroke-miterlimit:4;stroke-opacity:1;stroke-dasharray:none;stroke-dashoffset:0"
       sodipodi:type="arc" />
    <path
       sodipodi:type="arc"
       style="fill:none;stroke:#000000;stroke-width:1.5;stroke-linecap:butt;stroke-miterlimit:4;stroke-opacity:1;stroke-dasharray:none;stroke-dashoffset:0"
       id="path2989"
       sodipodi:cx="22.98097"
       sodipodi:cy="22.20401"
       sodipodi:rx="6.5659914"
       sodipodi:ry="6.5659914"
       d="m 29.546962,22.20401 a 6.5659914,6.5659914 0 1 1 -13.131983,0 6.5659914,6.5659914 0 1 1 13.131983,0 z"
       transform="translate(218.78096,877.63073)" />
    <path
       transform="translate(48.476964,909.56273)"
       d="m 29.546962,22.20401 a 6.5659914,6.5659914 0 1 1 -13.131983,0 6.5659914,6.5659914 0 1 1 13.131983,0 z"
       sodipodi:ry="6.5659914"
       sodipodi:rx="6.5659914"
       sodipodi:cy="22.20401"
       sodipodi:cx="22.98097"
       id="path2991"
       style="fill:none;stroke:#000000;stroke-width:1.5;stroke-linecap:butt;stroke-miterlimit:4;stroke-opacity:1;stroke-dasharray:none;stroke-dashoffset:0"
       sodipodi:type="arc" />
    <path
       sodipodi:type="arc"
       style="fill:none;stroke:#000000;stroke-width:1.5;stroke-linecap:butt;stroke-miterlimit:4;stroke-opacity:1;stroke-dasharray:none;stroke-dashoffset:0"
       id="path2993"
       sodipodi:cx="22.98097"
       sodipodi:cy="22.20401"
       sodipodi:rx="6.5659914"
       sodipodi:ry="6.5659914"
       d="m 29.546962,22.20401 a 6.5659914,6.5659914 0 1 1 -13.131983,0 6.5659914,6.5659914 0 1 1 13.131983,0 z"
       transform="translate(76.860964,909.56273)" />
    <path
       transform="translate(218.78096,909.56273)"
       d="m 29.546962,22.20401 a 6.5659914,6.5659914 0 1 1 -13.131983,0 6.5659914,6.5659914 0 1 1 13.131983,0 z"
       sodipodi:ry="6.5659914"
       sodipodi:rx="6.5659914"
       sodipodi:cy="22.20401"
       sodipodi:cx="22.98097"
       id="path2995"
       style="fill:none;stroke:#000000;stroke-width:1.5;stroke-linecap:butt;stroke-miterlimit:4;stroke-opacity:1;stroke-dasharray:none;stroke-dashoffset:0"
       sodipodi:type="arc" />
    <path
       sodipodi:type="arc"
       style="fill:none;stroke:#000000;stroke-width:1.5;stroke-linecap:butt;stroke-miterlimit:4;stroke-opacity:1;stroke-dasharray:none;stroke-dashoffset:0"
       id="path2997"
       sodipodi:cx="22.98097"
       sodipodi:cy="22.20401"
       sodipodi:rx="6.5659914"
       sodipodi:ry="6.5659914"
       d="m 29.546962,22.20401 a 6.5659914,6.5659914 0 1 1 -13.131983,0 6.5659914,6.5659914 0 1 1 13.131983,0 z"
       transform="translate(48.476964,941.49474)" />
    <path
       transform="translate(76.860964,941.49474)"
       d="m 29.546962,22.20401 a 6.5659914,6.5659914 0 1 1 -13.131983,0 6.5659914,6.5659914 0 1 1 13.131983,0 z"
       sodipodi:ry="6.5659914"
       sodipodi:rx="6.5659914"
       sodipodi:cy="22.20401"
       sodipodi:cx="22.98097"
       id="path2999"
       style="fill:none;stroke:#000000;stroke-width:1.5;stroke-linecap:butt;stroke-miterlimit:4;stroke-opacity:1;stroke-dasharray:none;stroke-dashoffset:0"
       sodipodi:type="arc" />
    <path
       sodipodi:type="arc"
       style="fill:none;stroke:#000000;stroke-width:1.5;stroke-linecap:butt;stroke-miterlimit:4;stroke-opacity:1;stroke-dasharray:none;stroke-dashoffset:0"
       id="path3001"
       sodipodi:cx="22.98097"
       sodipodi:cy="22.20401"
       sodipodi:rx="6.5659914"
       sodipodi:ry="6.5659914"
       d="m 29.546962,22.20401 a 6.5659914,6.5659914 0 1 1 -13.131983,0 6.5659914,6.5659914 0 1 1 13.131983,0 z"
       transform="translate(218.78096,941.49474)" />
    <rect
       style="fill:none;stroke:#000000;stroke-width:1.5;stroke-linecap:butt;stroke-miterlimit:4;stroke-opacity:1;stroke-dasharray:none;stroke-dashoffset:0"
       id="rect3003"
       width="14.142136"
       height="14.142136"
       x="37.112747"
       y="892.76367" />
    <rect
       y="924.69543"
       x="37.112747"
       height="14.142136"
       width="14.142136"
       id="rect3005"
       style="fill:none;stroke:#000000;stroke-width:1.5;stroke-linecap:butt;stroke-miterlimit:4;stroke-opacity:1;stroke-dasharray:none;stroke-dashoffset:0" />
    <rect
       style="fill:none;stroke:#000000;stroke-width:1.5;stroke-linecap:butt;stroke-miterlimit:4;stroke-opacity:1;stroke-dasharray:none;stroke-dashoffset:0"
       id="rect3007"
       width="14.142136"
       height="14.142136"
       x="37.112747"
       y="956.6272" />
    <rect
       y="892.76367"
       x="261.91199"
       height="14.142136"
       width="14.142136"
       id="rect3009"
       style="fill:none;stroke:#000000;stroke-width:1.5;stroke-linecap:butt;stroke-miterlimit:4;stroke-opacity:1;stroke-dasharray:none;stroke-dashoffset:0" />
    <rect
       style="fill:none;stroke:#000000;stroke-width:1.5;stroke-linecap:butt;stroke-miterlimit:4;stroke-opacity:1;stroke-dasharray:none;stroke-dashoffset:0"
       id="rect3011"
       width="14.142136"
       height="14.142136"
       x="261.91199"
       y="924.69543" />
    <rect
       y="956.6272"
       x="261.91199"
       height="14.142136"
       width="14.142136"
       id="rect3013"
       style="fill:none;stroke:#000000;stroke-width:1.5;stroke-linecap:butt;stroke-miterlimit:4;stroke-opacity:1;stroke-dasharray:none;stroke-dashoffset:0" />
    <path
       style="fill:none;stroke:#000000;stroke-width:1px;stroke-linecap:butt;stroke-linejoin:miter;stroke-opacity:1"
       d="m 51.75996,899.32966 12.626907,0"
       id="path3015"
       inkscape:connector-curvature="0" />
    <path
       inkscape:connector-curvature="0"
       id="path3017"
       d="m 51.75996,931.26166 12.626907,0"
       style="fill:none;stroke:#000000;stroke-width:1px;stroke-linecap:butt;stroke-linejoin:miter;stroke-opacity:1" />
    <path
       style="fill:none;stroke:#000000;stroke-width:1px;stroke-linecap:butt;stroke-linejoin:miter;stroke-opacity:1"
       d="m 51.75996,963.19364 12.626907,0"
       id="path3019"
       inkscape:connector-curvature="0" />
    <path
       inkscape:connector-curvature="0"
       id="path3021"
       d="m 79.340389,899.32966 12.626907,0"
       style="fill:none;stroke:#000000;stroke-width:1px;stroke-linecap:butt;stroke-linejoin:miter;stroke-opacity:1" />
    <path
       style="fill:none;stroke:#000000;stroke-width:1px;stroke-linecap:butt;stroke-linejoin:miter;stroke-opacity:1"
       d="m 79.340389,931.26166 12.626907,0"
       id="path3023"
       inkscape:connector-curvature="0" />
    <path
       inkscape:connector-curvature="0"
       id="path3025"
       d="m 79.340389,963.19364 12.626907,0"
       style="fill:none;stroke:#000000;stroke-width:1px;stroke-linecap:butt;stroke-linejoin:miter;stroke-opacity:1" />
    <path
       style="fill:none;stroke:#000000;stroke-width:1px;stroke-linecap:butt;stroke-linejoin:miter;stroke-opacity:1"
       d="m 107.72439,899.32966 12.6269,0"
       id="path3027"
       inkscape:connector-curvature="0" />
    <path
       inkscape:connector-curvature="0"
       id="path3029"
       d="m 107.72439,931.26166 12.6269,0"
       style="fill:none;stroke:#000000;stroke-width:1px;stroke-linecap:butt;stroke-linejoin:miter;stroke-opacity:1" />
    <path
       style="fill:none;stroke:#000000;stroke-width:1px;stroke-linecap:butt;stroke-linejoin:miter;stroke-opacity:1"
       d="m 107.72439,963.19364 12.6269,0"
       id="path3031"
       inkscape:connector-curvature="0" />
    <path
       inkscape:connector-curvature="0"
       id="path3033"
       d="m 248.97475,899.32966 12.6269,0"
       style="fill:none;stroke:#000000;stroke-width:1px;stroke-linecap:butt;stroke-linejoin:miter;stroke-opacity:1" />
    <path
       style="fill:none;stroke:#000000;stroke-width:1px;stroke-linecap:butt;stroke-linejoin:miter;stroke-opacity:1"
       d="m 248.97475,931.26166 12.6269,0"
       id="path3035"
       inkscape:connector-curvature="0" />
    <path
       inkscape:connector-curvature="0"
       id="path3037"
       d="m 248.97475,963.19364 12.6269,0"
       style="fill:none;stroke:#000000;stroke-width:1px;stroke-linecap:butt;stroke-linejoin:miter;stroke-opacity:1" />
    <path
       style="fill:none;stroke:#000000;stroke-width:1px;stroke-linecap:butt;stroke-linejoin:miter;stroke-opacity:1"
       d="m 71.488572,907.91596 0,15.8959"
       id="path3039"
       inkscape:connector-curvature="0"
       sodipodi:nodetypes="cc" />
    <path
       sodipodi:nodetypes="cc"
       inkscape:connector-curvature="0"
       id="path3041"
       d="m 99.872571,907.91596 0,15.8959"
       style="fill:none;stroke:#000000;stroke-width:1px;stroke-linecap:butt;stroke-linejoin:miter;stroke-opacity:1" />
    <path
       style="fill:none;stroke:#000000;stroke-width:1px;stroke-linecap:butt;stroke-linejoin:miter;stroke-opacity:1"
       d="m 241.79257,907.91596 0,15.8959"
       id="path3043"
       inkscape:connector-curvature="0"
       sodipodi:nodetypes="cc" />
    <path
       sodipodi:nodetypes="cc"
       inkscape:connector-curvature="0"
       id="path3045"
       d="m 71.488572,939.84794 0,15.8959"
       style="fill:none;stroke:#000000;stroke-width:1px;stroke-linecap:butt;stroke-linejoin:miter;stroke-opacity:1" />
    <path
       style="fill:none;stroke:#000000;stroke-width:1px;stroke-linecap:butt;stroke-linejoin:miter;stroke-opacity:1"
       d="m 99.872571,939.84794 0,15.8959"
       id="path3047"
       inkscape:connector-curvature="0"
       sodipodi:nodetypes="cc" />
    <path
       sodipodi:nodetypes="cc"
       inkscape:connector-curvature="0"
       id="path3049"
       d="m 241.79257,939.84794 0,15.8959"
       style="fill:none;stroke:#000000;stroke-width:1px;stroke-linecap:butt;stroke-linejoin:miter;stroke-opacity:1" />
    <text
       xml:space="preserve"
       style="font-size:12px;font-style:normal;font-variant:normal;font-weight:normal;font-stretch:normal;text-align:start;line-height:125%;letter-spacing:0px;word-spacing:0px;writing-mode:lr-tb;text-anchor:start;fill:#000000;fill-opacity:1;stroke:none;font-family:Sans;-inkscape-font-specification:Sans"
       x="12.011745"
       y="903.88782"
       id="text3051"
       sodipodi:linespacing="125%"><tspan
         sodipodi:role="line"
         id="tspan3053"
         x="12.011745"
         y="903.88782">in</tspan></text>
    <text
       xml:space="preserve"
       style="font-size:12px;font-style:normal;font-variant:normal;font-weight:normal;font-stretch:normal;text-align:start;line-height:125%;letter-spacing:0px;word-spacing:0px;writing-mode:lr-tb;text-anchor:start;fill:#000000;fill-opacity:1;stroke:none;font-family:Sans;-inkscape-font-specification:Sans"
       x="23.375961"
       y="908.92609"
       id="text3055"
       sodipodi:linespacing="125%"><tspan
         sodipodi:role="line"
         id="tspan3057"
         x="23.375961"
         y="908.92609"
         style="font-size:8px">1</tspan></text>
    <text
       sodipodi:linespacing="125%"
       id="text3059"
       y="935.81964"
       x="12.011745"
       style="font-size:12px;font-style:normal;font-variant:normal;font-weight:normal;font-stretch:normal;text-align:start;line-height:125%;letter-spacing:0px;word-spacing:0px;writing-mode:lr-tb;text-anchor:start;fill:#000000;fill-opacity:1;stroke:none;font-family:Sans;-inkscape-font-specification:Sans"
       xml:space="preserve"><tspan
         y="935.81964"
         x="12.011745"
         id="tspan3061"
         sodipodi:role="line">in</tspan></text>
    <text
       sodipodi:linespacing="125%"
       id="text3063"
       y="940.85791"
       x="23.375961"
       style="font-size:12px;font-style:normal;font-variant:normal;font-weight:normal;font-stretch:normal;text-align:start;line-height:125%;letter-spacing:0px;word-spacing:0px;writing-mode:lr-tb;text-anchor:start;fill:#000000;fill-opacity:1;stroke:none;font-family:Sans;-inkscape-font-specification:Sans"
       xml:space="preserve"><tspan
         style="font-size:8px"
         y="940.85791"
         x="23.375961"
         id="tspan3065"
         sodipodi:role="line">2</tspan></text>
    <text
       xml:space="preserve"
       style="font-size:12px;font-style:normal;font-variant:normal;font-weight:normal;font-stretch:normal;text-align:start;line-height:125%;letter-spacing:0px;word-spacing:0px;writing-mode:lr-tb;text-anchor:start;fill:#000000;fill-opacity:1;stroke:none;font-family:Sans;-inkscape-font-specification:Sans"
       x="12.011745"
       y="967.75153"
       id="text3067"
       sodipodi:linespacing="125%"><tspan
         sodipodi:role="line"
         id="tspan3069"
         x="12.011745"
         y="967.75153">in</tspan></text>
    <text
       xml:space="preserve"
       style="font-size:12px;font-style:normal;font-variant:normal;font-weight:normal;font-stretch:normal;text-align:start;line-height:125%;letter-spacing:0px;word-spacing:0px;writing-mode:lr-tb;text-anchor:start;fill:#000000;fill-opacity:1;stroke:none;font-family:Sans;-inkscape-font-specification:Sans"
       x="23.375961"
       y="972.78973"
       id="text3071"
       sodipodi:linespacing="125%"><tspan
         sodipodi:role="line"
         id="tspan3073"
         x="23.375961"
         y="972.78973"
         style="font-size:8px">3</tspan></text>
    <text
       sodipodi:linespacing="125%"
       id="text3075"
       y="903.88782"
       x="285.20786"
       style="font-size:12px;font-style:normal;font-variant:normal;font-weight:normal;font-stretch:normal;text-align:start;line-height:125%;letter-spacing:0px;word-spacing:0px;writing-mode:lr-tb;text-anchor:start;fill:#000000;fill-opacity:1;stroke:none;font-family:Sans;-inkscape-font-specification:Sans"
       xml:space="preserve"><tspan
         y="903.88782"
         x="285.20786"
         id="tspan3077"
         sodipodi:role="line">out</tspan></text>
    <text
       sodipodi:linespacing="125%"
       id="text3079"
       y="908.92609"
       x="305.12009"
       style="font-size:12px;font-style:normal;font-variant:normal;font-weight:normal;font-stretch:normal;text-align:start;line-height:125%;letter-spacing:0px;word-spacing:0px;writing-mode:lr-tb;text-anchor:start;fill:#000000;fill-opacity:1;stroke:none;font-family:Sans;-inkscape-font-specification:Sans"
       xml:space="preserve"><tspan
         style="font-size:8px"
         y="908.92609"
         x="305.12009"
         id="tspan3081"
         sodipodi:role="line">1</tspan></text>
    <text
       xml:space="preserve"
       style="font-size:12px;font-style:normal;font-variant:normal;font-weight:normal;font-stretch:normal;text-align:start;line-height:125%;letter-spacing:0px;word-spacing:0px;writing-mode:lr-tb;text-anchor:start;fill:#000000;fill-opacity:1;stroke:none;font-family:Sans;-inkscape-font-specification:Sans"
       x="285.20786"
       y="935.81964"
       id="text3083"
       sodipodi:linespacing="125%"><tspan
         sodipodi:role="line"
         id="tspan3085"
         x="285.20786"
         y="935.81964">out</tspan></text>
    <text
       xml:space="preserve"
       style="font-size:12px;font-style:normal;font-variant:normal;font-weight:normal;font-stretch:normal;text-align:start;line-height:125%;letter-spacing:0px;word-spacing:0px;writing-mode:lr-tb;text-anchor:start;fill:#000000;fill-opacity:1;stroke:none;font-family:Sans;-inkscape-font-specification:Sans"
       x="305.12009"
       y="940.85803"
       id="text3087"
       sodipodi:linespacing="125%"><tspan
         sodipodi:role="line"
         id="tspan3089"
         x="305.12009"
         y="940.85803"
         style="font-size:8px">2</tspan></text>
    <text
       sodipodi:linespacing="125%"
       id="text3091"
       y="967.75153"
       x="285.20786"
       style="font-size:12px;font-style:normal;font-variant:normal;font-weight:normal;font-stretch:normal;text-align:start;line-height:125%;letter-spacing:0px;word-spacing:0px;writing-mode:lr-tb;text-anchor:start;fill:#000000;fill-opacity:1;stroke:none;font-family:Sans;-inkscape-font-specification:Sans"
       xml:space="preserve"><tspan
         y="967.75153"
         x="285.20786"
         id="tspan3093"
         sodipodi:role="line">out</tspan></text>
    <text
       sodipodi:linespacing="125%"
       id="text3095"
       y="972.78973"
       x="305.12009"
       style="font-size:12px;font-style:normal;font-variant:normal;font-weight:normal;font-stretch:normal;text-align:start;line-height:125%;letter-spacing:0px;word-spacing:0px;writing-mode:lr-tb;text-anchor:start;fill:#000000;fill-opacity:1;stroke:none;font-family:Sans;-inkscape-font-specification:Sans"
       xml:space="preserve"><tspan
         style="font-size:8px"
         y="972.78973"
         x="305.12009"
         id="tspan3097"
         sodipodi:role="line">3</tspan></text>
    <path
       transform="translate(48.476964,973.42674)"
       d="m 29.546962,22.20401 a 6.5659914,6.5659914 0 1 1 -13.131983,0 6.5659914,6.5659914 0 1 1 13.131983,0 z"
       sodipodi:ry="6.5659914"
       sodipodi:rx="6.5659914"
       sodipodi:cy="22.20401"
       sodipodi:cx="22.98097"
       id="path4867"
       style="fill:none;stroke:#000000;stroke-width:1.5;stroke-linecap:butt;stroke-miterlimit:4;stroke-opacity:1;stroke-dasharray:none;stroke-dashoffset:0"
       sodipodi:type="arc" />
    <path
       sodipodi:type="arc"
       style="fill:none;stroke:#000000;stroke-width:1.5;stroke-linecap:butt;stroke-miterlimit:4;stroke-opacity:1;stroke-dasharray:none;stroke-dashoffset:0"
       id="path4869"
       sodipodi:cx="22.98097"
       sodipodi:cy="22.20401"
       sodipodi:rx="6.5659914"
       sodipodi:ry="6.5659914"
       d="m 29.546962,22.20401 a 6.5659914,6.5659914 0 1 1 -13.131983,0 6.5659914,6.5659914 0 1 1 13.131983,0 z"
       transform="translate(76.860964,973.42674)" />
    <path
       transform="translate(218.78096,973.42674)"
       d="m 29.546962,22.20401 a 6.5659914,6.5659914 0 1 1 -13.131983,0 6.5659914,6.5659914 0 1 1 13.131983,0 z"
       sodipodi:ry="6.5659914"
       sodipodi:rx="6.5659914"
       sodipodi:cy="22.20401"
       sodipodi:cx="22.98097"
       id="path4871"
       style="fill:none;stroke:#000000;stroke-width:1.5;stroke-linecap:butt;stroke-miterlimit:4;stroke-opacity:1;stroke-dasharray:none;stroke-dashoffset:0"
       sodipodi:type="arc" />
    <rect
       y="988.55902"
       x="37.112747"
       height="14.142136"
       width="14.142136"
       id="rect4873"
       style="fill:none;stroke:#000000;stroke-width:1.5;stroke-linecap:butt;stroke-miterlimit:4;stroke-opacity:1;stroke-dasharray:none;stroke-dashoffset:0" />
    <rect
       style="fill:none;stroke:#000000;stroke-width:1.5;stroke-linecap:butt;stroke-miterlimit:4;stroke-opacity:1;stroke-dasharray:none;stroke-dashoffset:0"
       id="rect4875"
       width="14.142136"
       height="14.142136"
       x="261.91199"
       y="988.55902" />
    <path
       inkscape:connector-curvature="0"
       id="path4877"
       d="m 51.75996,995.12564 12.626907,0"
       style="fill:none;stroke:#000000;stroke-width:1px;stroke-linecap:butt;stroke-linejoin:miter;stroke-opacity:1" />
    <path
       style="fill:none;stroke:#000000;stroke-width:1px;stroke-linecap:butt;stroke-linejoin:miter;stroke-opacity:1"
       d="m 79.340389,995.12564 12.626907,0"
       id="path4879"
       inkscape:connector-curvature="0" />
    <path
       inkscape:connector-curvature="0"
       id="path4881"
       d="m 107.72439,995.12564 12.6269,0"
       style="fill:none;stroke:#000000;stroke-width:1px;stroke-linecap:butt;stroke-linejoin:miter;stroke-opacity:1" />
    <path
       style="fill:none;stroke:#000000;stroke-width:1px;stroke-linecap:butt;stroke-linejoin:miter;stroke-opacity:1"
       d="m 248.97475,995.12564 12.6269,0"
       id="path4883"
       inkscape:connector-curvature="0" />
    <path
       style="fill:none;stroke:#000000;stroke-width:1px;stroke-linecap:butt;stroke-linejoin:miter;stroke-opacity:1"
       d="m 71.488572,971.77994 0,15.8959"
       id="path4885"
       inkscape:connector-curvature="0"
       sodipodi:nodetypes="cc" />
    <path
       sodipodi:nodetypes="cc"
       inkscape:connector-curvature="0"
       id="path4887"
       d="m 99.872571,971.77994 0,15.8959"
       style="fill:none;stroke:#000000;stroke-width:1px;stroke-linecap:butt;stroke-linejoin:miter;stroke-opacity:1" />
    <path
       style="fill:none;stroke:#000000;stroke-width:1px;stroke-linecap:butt;stroke-linejoin:miter;stroke-opacity:1"
       d="m 241.79257,971.77994 0,15.8959"
       id="path4889"
       inkscape:connector-curvature="0"
       sodipodi:nodetypes="cc" />
    <text
       sodipodi:linespacing="125%"
       id="text4891"
       y="999.68329"
       x="12.011745"
       style="font-size:12px;font-style:normal;font-variant:normal;font-weight:normal;font-stretch:normal;text-align:start;line-height:125%;letter-spacing:0px;word-spacing:0px;writing-mode:lr-tb;text-anchor:start;fill:#000000;fill-opacity:1;stroke:none;font-family:Sans;-inkscape-font-specification:Sans"
       xml:space="preserve"><tspan
         y="999.68329"
         x="12.011745"
         id="tspan4893"
         sodipodi:role="line">in</tspan></text>
    <text
       sodipodi:linespacing="125%"
       id="text4895"
       y="1004.7215"
       x="23.375961"
       style="font-size:12px;font-style:normal;font-variant:normal;font-weight:normal;font-stretch:normal;text-align:start;line-height:125%;letter-spacing:0px;word-spacing:0px;writing-mode:lr-tb;text-anchor:start;fill:#000000;fill-opacity:1;stroke:none;font-family:Sans;-inkscape-font-specification:Sans"
       xml:space="preserve"><tspan
         style="font-size:8px"
         y="1004.7215"
         x="23.375961"
         id="tspan4897"
         sodipodi:role="line">4</tspan></text>
    <text
       xml:space="preserve"
       style="font-size:12px;font-style:normal;font-variant:normal;font-weight:normal;font-stretch:normal;text-align:start;line-height:125%;letter-spacing:0px;word-spacing:0px;writing-mode:lr-tb;text-anchor:start;fill:#000000;fill-opacity:1;stroke:none;font-family:Sans;-inkscape-font-specification:Sans"
       x="285.20786"
       y="999.68329"
       id="text4899"
       sodipodi:linespacing="125%"><tspan
         sodipodi:role="line"
         id="tspan4901"
         x="285.20786"
         y="999.68329">out</tspan></text>
    <text
       xml:space="preserve"
       style="font-size:12px;font-style:normal;font-variant:normal;font-weight:normal;font-stretch:normal;text-align:start;line-height:125%;letter-spacing:0px;word-spacing:0px;writing-mode:lr-tb;text-anchor:start;fill:#000000;fill-opacity:1;stroke:none;font-family:Sans;-inkscape-font-specification:Sans"
       x="305.12009"
       y="1004.7215"
       id="text4903"
       sodipodi:linespacing="125%"><tspan
         sodipodi:role="line"
         id="tspan4905"
         x="305.12009"
         y="1004.7215"
         style="font-size:8px">4</tspan></text>
    <path
       sodipodi:type="arc"
       style="fill:none;stroke:#000000;stroke-width:1.5;stroke-linecap:butt;stroke-miterlimit:4;stroke-opacity:1;stroke-dasharray:none;stroke-dashoffset:0"
       id="path4907"
       sodipodi:cx="22.98097"
       sodipodi:cy="22.20401"
       sodipodi:rx="6.5659914"
       sodipodi:ry="6.5659914"
       d="m 29.546962,22.20401 a 6.5659914,6.5659914 0 1 1 -13.131983,0 6.5659914,6.5659914 0 1 1 13.131983,0 z"
       transform="translate(48.476964,1005.3587)" />
    <path
       transform="translate(76.860964,1005.3587)"
       d="m 29.546962,22.20401 a 6.5659914,6.5659914 0 1 1 -13.131983,0 6.5659914,6.5659914 0 1 1 13.131983,0 z"
       sodipodi:ry="6.5659914"
       sodipodi:rx="6.5659914"
       sodipodi:cy="22.20401"
       sodipodi:cx="22.98097"
       id="path4909"
       style="fill:none;stroke:#000000;stroke-width:1.5;stroke-linecap:butt;stroke-miterlimit:4;stroke-opacity:1;stroke-dasharray:none;stroke-dashoffset:0"
       sodipodi:type="arc" />
    <path
       sodipodi:type="arc"
       style="fill:none;stroke:#000000;stroke-width:1.5;stroke-linecap:butt;stroke-miterlimit:4;stroke-opacity:1;stroke-dasharray:none;stroke-dashoffset:0"
       id="path4911"
       sodipodi:cx="22.98097"
       sodipodi:cy="22.20401"
       sodipodi:rx="6.5659914"
       sodipodi:ry="6.5659914"
       d="m 29.546962,22.20401 a 6.5659914,6.5659914 0 1 1 -13.131983,0 6.5659914,6.5659914 0 1 1 13.131983,0 z"
       transform="translate(218.78096,1005.3587)" />
    <rect
       style="fill:none;stroke:#000000;stroke-width:1.5;stroke-linecap:butt;stroke-miterlimit:4;stroke-opacity:1;stroke-dasharray:none;stroke-dashoffset:0"
       id="rect4913"
       width="14.142136"
       height="14.142136"
       x="37.112747"
       y="1020.4908" />
    <rect
       y="1020.4908"
       x="261.91199"
       height="14.142136"
       width="14.142136"
       id="rect4915"
       style="fill:none;stroke:#000000;stroke-width:1.5;stroke-linecap:butt;stroke-miterlimit:4;stroke-opacity:1;stroke-dasharray:none;stroke-dashoffset:0" />
    <path
       style="fill:none;stroke:#000000;stroke-width:1px;stroke-linecap:butt;stroke-linejoin:miter;stroke-opacity:1"
       d="m 51.75996,1027.0576 12.626907,0"
       id="path4917"
       inkscape:connector-curvature="0" />
    <path
       inkscape:connector-curvature="0"
       id="path4919"
       d="m 79.340389,1027.0576 12.626907,0"
       style="fill:none;stroke:#000000;stroke-width:1px;stroke-linecap:butt;stroke-linejoin:miter;stroke-opacity:1" />
    <path
       style="fill:none;stroke:#000000;stroke-width:1px;stroke-linecap:butt;stroke-linejoin:miter;stroke-opacity:1"
       d="m 107.72439,1027.0576 12.6269,0"
       id="path4921"
       inkscape:connector-curvature="0" />
    <path
       inkscape:connector-curvature="0"
       id="path4923"
       d="m 248.97475,1027.0576 12.6269,0"
       style="fill:none;stroke:#000000;stroke-width:1px;stroke-linecap:butt;stroke-linejoin:miter;stroke-opacity:1" />
    <path
       sodipodi:nodetypes="cc"
       inkscape:connector-curvature="0"
       id="path4925"
       d="m 71.488572,1003.7119 0,15.8959"
       style="fill:none;stroke:#000000;stroke-width:1px;stroke-linecap:butt;stroke-linejoin:miter;stroke-opacity:1" />
    <path
       style="fill:none;stroke:#000000;stroke-width:1px;stroke-linecap:butt;stroke-linejoin:miter;stroke-opacity:1"
       d="m 99.872571,1003.7119 0,15.8959"
       id="path4927"
       inkscape:connector-curvature="0"
       sodipodi:nodetypes="cc" />
    <path
       sodipodi:nodetypes="cc"
       inkscape:connector-curvature="0"
       id="path4929"
       d="m 241.79257,1003.7119 0,15.8959"
       style="fill:none;stroke:#000000;stroke-width:1px;stroke-linecap:butt;stroke-linejoin:miter;stroke-opacity:1" />
    <text
       xml:space="preserve"
       style="font-size:12px;font-style:normal;font-variant:normal;font-weight:normal;font-stretch:normal;text-align:start;line-height:125%;letter-spacing:0px;word-spacing:0px;writing-mode:lr-tb;text-anchor:start;fill:#000000;fill-opacity:1;stroke:none;font-family:Sans;-inkscape-font-specification:Sans"
       x="12.011745"
       y="1031.6151"
       id="text4931"
       sodipodi:linespacing="125%"><tspan
         sodipodi:role="line"
         id="tspan4933"
         x="12.011745"
         y="1031.6151">in</tspan></text>
    <text
       xml:space="preserve"
       style="font-size:12px;font-style:normal;font-variant:normal;font-weight:normal;font-stretch:normal;text-align:start;line-height:125%;letter-spacing:0px;word-spacing:0px;writing-mode:lr-tb;text-anchor:start;fill:#000000;fill-opacity:1;stroke:none;font-family:Sans;-inkscape-font-specification:Sans"
       x="23.375961"
       y="1036.6533"
       id="text4935"
       sodipodi:linespacing="125%"><tspan
         sodipodi:role="line"
         id="tspan4937"
         x="23.375961"
         y="1036.6533"
         style="font-size:8px">5</tspan></text>
    <text
       sodipodi:linespacing="125%"
       id="text4939"
       y="1031.6151"
       x="285.20786"
       style="font-size:12px;font-style:normal;font-variant:normal;font-weight:normal;font-stretch:normal;text-align:start;line-height:125%;letter-spacing:0px;word-spacing:0px;writing-mode:lr-tb;text-anchor:start;fill:#000000;fill-opacity:1;stroke:none;font-family:Sans;-inkscape-font-specification:Sans"
       xml:space="preserve"><tspan
         y="1031.6151"
         x="285.20786"
         id="tspan4941"
         sodipodi:role="line">out</tspan></text>
    <text
       sodipodi:linespacing="125%"
       id="text4943"
       y="1036.6533"
       x="305.12009"
       style="font-size:12px;font-style:normal;font-variant:normal;font-weight:normal;font-stretch:normal;text-align:start;line-height:125%;letter-spacing:0px;word-spacing:0px;writing-mode:lr-tb;text-anchor:start;fill:#000000;fill-opacity:1;stroke:none;font-family:Sans;-inkscape-font-specification:Sans"
       xml:space="preserve"><tspan
         style="font-size:8px"
         y="1036.6533"
         x="305.12009"
         id="tspan4945"
         sodipodi:role="line">5</tspan></text>
    <path
       transform="translate(105.24496,877.63073)"
       d="m 29.546962,22.20401 a 6.5659914,6.5659914 0 1 1 -13.131983,0 6.5659914,6.5659914 0 1 1 13.131983,0 z"
       sodipodi:ry="6.5659914"
       sodipodi:rx="6.5659914"
       sodipodi:cy="22.20401"
       sodipodi:cx="22.98097"
       id="path4947"
       style="fill:none;stroke:#000000;stroke-width:1.5;stroke-linecap:butt;stroke-miterlimit:4;stroke-opacity:1;stroke-dasharray:none;stroke-dashoffset:0"
       sodipodi:type="arc" />
    <path
       sodipodi:type="arc"
       style="fill:none;stroke:#000000;stroke-width:1.5;stroke-linecap:butt;stroke-miterlimit:4;stroke-opacity:1;stroke-dasharray:none;stroke-dashoffset:0"
       id="path4951"
       sodipodi:cx="22.98097"
       sodipodi:cy="22.20401"
       sodipodi:rx="6.5659914"
       sodipodi:ry="6.5659914"
       d="m 29.546962,22.20401 a 6.5659914,6.5659914 0 1 1 -13.131983,0 6.5659914,6.5659914 0 1 1 13.131983,0 z"
       transform="translate(105.24496,909.56273)" />
    <path
       transform="translate(105.24496,941.49474)"
       d="m 29.546962,22.20401 a 6.5659914,6.5659914 0 1 1 -13.131983,0 6.5659914,6.5659914 0 1 1 13.131983,0 z"
       sodipodi:ry="6.5659914"
       sodipodi:rx="6.5659914"
       sodipodi:cy="22.20401"
       sodipodi:cx="22.98097"
       id="path4955"
       style="fill:none;stroke:#000000;stroke-width:1.5;stroke-linecap:butt;stroke-miterlimit:4;stroke-opacity:1;stroke-dasharray:none;stroke-dashoffset:0"
       sodipodi:type="arc" />
    <path
       style="fill:none;stroke:#000000;stroke-width:1px;stroke-linecap:butt;stroke-linejoin:miter;stroke-opacity:1"
       d="m 136.10839,899.32966 12.62691,0"
       id="path4959"
       inkscape:connector-curvature="0" />
    <path
       inkscape:connector-curvature="0"
       id="path4961"
       d="m 136.10839,931.26166 12.62691,0"
       style="fill:none;stroke:#000000;stroke-width:1px;stroke-linecap:butt;stroke-linejoin:miter;stroke-opacity:1" />
    <path
       style="fill:none;stroke:#000000;stroke-width:1px;stroke-linecap:butt;stroke-linejoin:miter;stroke-opacity:1"
       d="m 136.10839,963.19364 12.62691,0"
       id="path4963"
       inkscape:connector-curvature="0" />
    <path
       sodipodi:nodetypes="cc"
       inkscape:connector-curvature="0"
       id="path4971"
       d="m 128.25657,907.91596 0,15.8959"
       style="fill:none;stroke:#000000;stroke-width:1px;stroke-linecap:butt;stroke-linejoin:miter;stroke-opacity:1" />
    <path
       style="fill:none;stroke:#000000;stroke-width:1px;stroke-linecap:butt;stroke-linejoin:miter;stroke-opacity:1"
       d="m 128.25657,939.84794 0,15.8959"
       id="path4975"
       inkscape:connector-curvature="0"
       sodipodi:nodetypes="cc" />
    <path
       sodipodi:type="arc"
       style="fill:none;stroke:#000000;stroke-width:1.5;stroke-linecap:butt;stroke-miterlimit:4;stroke-opacity:1;stroke-dasharray:none;stroke-dashoffset:0"
       id="path4979"
       sodipodi:cx="22.98097"
       sodipodi:cy="22.20401"
       sodipodi:rx="6.5659914"
       sodipodi:ry="6.5659914"
       d="m 29.546962,22.20401 a 6.5659914,6.5659914 0 1 1 -13.131983,0 6.5659914,6.5659914 0 1 1 13.131983,0 z"
       transform="translate(105.24496,973.42674)" />
    <path
       inkscape:connector-curvature="0"
       id="path4983"
       d="m 136.10839,995.12564 12.62691,0"
       style="fill:none;stroke:#000000;stroke-width:1px;stroke-linecap:butt;stroke-linejoin:miter;stroke-opacity:1" />
    <path
       sodipodi:nodetypes="cc"
       inkscape:connector-curvature="0"
       id="path4987"
       d="m 128.25657,971.77994 0,15.8959"
       style="fill:none;stroke:#000000;stroke-width:1px;stroke-linecap:butt;stroke-linejoin:miter;stroke-opacity:1" />
    <path
       transform="translate(105.24496,1005.3587)"
       d="m 29.546962,22.20401 a 6.5659914,6.5659914 0 1 1 -13.131983,0 6.5659914,6.5659914 0 1 1 13.131983,0 z"
       sodipodi:ry="6.5659914"
       sodipodi:rx="6.5659914"
       sodipodi:cy="22.20401"
       sodipodi:cx="22.98097"
       id="path4991"
       style="fill:none;stroke:#000000;stroke-width:1.5;stroke-linecap:butt;stroke-miterlimit:4;stroke-opacity:1;stroke-dasharray:none;stroke-dashoffset:0"
       sodipodi:type="arc" />
    <path
       style="fill:none;stroke:#000000;stroke-width:1px;stroke-linecap:butt;stroke-linejoin:miter;stroke-opacity:1"
       d="m 136.10839,1027.0576 12.62691,0"
       id="path4995"
       inkscape:connector-curvature="0" />
    <path
       style="fill:none;stroke:#000000;stroke-width:1px;stroke-linecap:butt;stroke-linejoin:miter;stroke-opacity:1"
       d="m 128.25657,1003.7119 0,15.8959"
       id="path4999"
       inkscape:connector-curvature="0"
       sodipodi:nodetypes="cc" />
    <path
       sodipodi:type="arc"
       style="fill:none;stroke:#000000;stroke-width:1.5;stroke-linecap:butt;stroke-miterlimit:4;stroke-opacity:1;stroke-dasharray:none;stroke-dashoffset:0"
       id="path5003"
       sodipodi:cx="22.98097"
       sodipodi:cy="22.20401"
       sodipodi:rx="6.5659914"
       sodipodi:ry="6.5659914"
       d="m 29.546962,22.20401 a 6.5659914,6.5659914 0 1 1 -13.131983,0 6.5659914,6.5659914 0 1 1 13.131983,0 z"
       transform="translate(133.62896,877.63073)" />
    <path
       transform="translate(162.01296,877.63073)"
       d="m 29.546962,22.20401 a 6.5659914,6.5659914 0 1 1 -13.131983,0 6.5659914,6.5659914 0 1 1 13.131983,0 z"
       sodipodi:ry="6.5659914"
       sodipodi:rx="6.5659914"
       sodipodi:cy="22.20401"
       sodipodi:cx="22.98097"
       id="path5005"
       style="fill:none;stroke:#000000;stroke-width:1.5;stroke-linecap:butt;stroke-miterlimit:4;stroke-opacity:1;stroke-dasharray:none;stroke-dashoffset:0"
       sodipodi:type="arc" />
    <path
       transform="translate(133.62896,909.56273)"
       d="m 29.546962,22.20401 a 6.5659914,6.5659914 0 1 1 -13.131983,0 6.5659914,6.5659914 0 1 1 13.131983,0 z"
       sodipodi:ry="6.5659914"
       sodipodi:rx="6.5659914"
       sodipodi:cy="22.20401"
       sodipodi:cx="22.98097"
       id="path5007"
       style="fill:none;stroke:#000000;stroke-width:1.5;stroke-linecap:butt;stroke-miterlimit:4;stroke-opacity:1;stroke-dasharray:none;stroke-dashoffset:0"
       sodipodi:type="arc" />
    <path
       sodipodi:type="arc"
       style="fill:none;stroke:#000000;stroke-width:1.5;stroke-linecap:butt;stroke-miterlimit:4;stroke-opacity:1;stroke-dasharray:none;stroke-dashoffset:0"
       id="path5009"
       sodipodi:cx="22.98097"
       sodipodi:cy="22.20401"
       sodipodi:rx="6.5659914"
       sodipodi:ry="6.5659914"
       d="m 29.546962,22.20401 a 6.5659914,6.5659914 0 1 1 -13.131983,0 6.5659914,6.5659914 0 1 1 13.131983,0 z"
       transform="translate(162.01296,909.56273)" />
    <path
       sodipodi:type="arc"
       style="fill:none;stroke:#000000;stroke-width:1.5;stroke-linecap:butt;stroke-miterlimit:4;stroke-opacity:1;stroke-dasharray:none;stroke-dashoffset:0"
       id="path5011"
       sodipodi:cx="22.98097"
       sodipodi:cy="22.20401"
       sodipodi:rx="6.5659914"
       sodipodi:ry="6.5659914"
       d="m 29.546962,22.20401 a 6.5659914,6.5659914 0 1 1 -13.131983,0 6.5659914,6.5659914 0 1 1 13.131983,0 z"
       transform="translate(133.62896,941.49474)" />
    <path
       transform="translate(162.01296,941.49474)"
       d="m 29.546962,22.20401 a 6.5659914,6.5659914 0 1 1 -13.131983,0 6.5659914,6.5659914 0 1 1 13.131983,0 z"
       sodipodi:ry="6.5659914"
       sodipodi:rx="6.5659914"
       sodipodi:cy="22.20401"
       sodipodi:cx="22.98097"
       id="path5013"
       style="fill:none;stroke:#000000;stroke-width:1.5;stroke-linecap:butt;stroke-miterlimit:4;stroke-opacity:1;stroke-dasharray:none;stroke-dashoffset:0"
       sodipodi:type="arc" />
    <path
       inkscape:connector-curvature="0"
       id="path5015"
       d="m 164.49239,899.32966 12.62691,0"
       style="fill:none;stroke:#000000;stroke-width:1px;stroke-linecap:butt;stroke-linejoin:miter;stroke-opacity:1" />
    <path
       style="fill:none;stroke:#000000;stroke-width:1px;stroke-linecap:butt;stroke-linejoin:miter;stroke-opacity:1"
       d="m 164.49239,931.26166 12.62691,0"
       id="path5017"
       inkscape:connector-curvature="0" />
    <path
       inkscape:connector-curvature="0"
       id="path5019"
       d="m 164.49239,963.19364 12.62691,0"
       style="fill:none;stroke:#000000;stroke-width:1px;stroke-linecap:butt;stroke-linejoin:miter;stroke-opacity:1" />
    <path
       style="fill:none;stroke:#000000;stroke-width:1px;stroke-linecap:butt;stroke-linejoin:miter;stroke-opacity:1"
       d="m 192.87639,899.32966 12.6269,0"
       id="path5021"
       inkscape:connector-curvature="0" />
    <path
       inkscape:connector-curvature="0"
       id="path5023"
       d="m 192.87639,931.26166 12.6269,0"
       style="fill:none;stroke:#000000;stroke-width:1px;stroke-linecap:butt;stroke-linejoin:miter;stroke-opacity:1" />
    <path
       style="fill:none;stroke:#000000;stroke-width:1px;stroke-linecap:butt;stroke-linejoin:miter;stroke-opacity:1"
       d="m 192.87639,963.19364 12.6269,0"
       id="path5025"
       inkscape:connector-curvature="0" />
    <path
       style="fill:none;stroke:#000000;stroke-width:1px;stroke-linecap:butt;stroke-linejoin:miter;stroke-opacity:1"
       d="m 156.64057,907.91596 0,15.8959"
       id="path5027"
       inkscape:connector-curvature="0"
       sodipodi:nodetypes="cc" />
    <path
       sodipodi:nodetypes="cc"
       inkscape:connector-curvature="0"
       id="path5029"
       d="m 185.02457,907.91596 0,15.8959"
       style="fill:none;stroke:#000000;stroke-width:1px;stroke-linecap:butt;stroke-linejoin:miter;stroke-opacity:1" />
    <path
       sodipodi:nodetypes="cc"
       inkscape:connector-curvature="0"
       id="path5031"
       d="m 156.64057,939.84794 0,15.8959"
       style="fill:none;stroke:#000000;stroke-width:1px;stroke-linecap:butt;stroke-linejoin:miter;stroke-opacity:1" />
    <path
       style="fill:none;stroke:#000000;stroke-width:1px;stroke-linecap:butt;stroke-linejoin:miter;stroke-opacity:1"
       d="m 185.02457,939.84794 0,15.8959"
       id="path5033"
       inkscape:connector-curvature="0"
       sodipodi:nodetypes="cc" />
    <path
       transform="translate(133.62896,973.42674)"
       d="m 29.546962,22.20401 a 6.5659914,6.5659914 0 1 1 -13.131983,0 6.5659914,6.5659914 0 1 1 13.131983,0 z"
       sodipodi:ry="6.5659914"
       sodipodi:rx="6.5659914"
       sodipodi:cy="22.20401"
       sodipodi:cx="22.98097"
       id="path5035"
       style="fill:none;stroke:#000000;stroke-width:1.5;stroke-linecap:butt;stroke-miterlimit:4;stroke-opacity:1;stroke-dasharray:none;stroke-dashoffset:0"
       sodipodi:type="arc" />
    <path
       sodipodi:type="arc"
       style="fill:none;stroke:#000000;stroke-width:1.5;stroke-linecap:butt;stroke-miterlimit:4;stroke-opacity:1;stroke-dasharray:none;stroke-dashoffset:0"
       id="path5037"
       sodipodi:cx="22.98097"
       sodipodi:cy="22.20401"
       sodipodi:rx="6.5659914"
       sodipodi:ry="6.5659914"
       d="m 29.546962,22.20401 a 6.5659914,6.5659914 0 1 1 -13.131983,0 6.5659914,6.5659914 0 1 1 13.131983,0 z"
       transform="translate(162.01296,973.42674)" />
    <path
       style="fill:none;stroke:#000000;stroke-width:1px;stroke-linecap:butt;stroke-linejoin:miter;stroke-opacity:1"
       d="m 164.49239,995.12564 12.62691,0"
       id="path5039"
       inkscape:connector-curvature="0" />
    <path
       inkscape:connector-curvature="0"
       id="path5041"
       d="m 192.87639,995.12564 12.6269,0"
       style="fill:none;stroke:#000000;stroke-width:1px;stroke-linecap:butt;stroke-linejoin:miter;stroke-opacity:1" />
    <path
       style="fill:none;stroke:#000000;stroke-width:1px;stroke-linecap:butt;stroke-linejoin:miter;stroke-opacity:1"
       d="m 156.64057,971.77994 0,15.8959"
       id="path5043"
       inkscape:connector-curvature="0"
       sodipodi:nodetypes="cc" />
    <path
       sodipodi:nodetypes="cc"
       inkscape:connector-curvature="0"
       id="path5045"
       d="m 185.02457,971.77994 0,15.8959"
       style="fill:none;stroke:#000000;stroke-width:1px;stroke-linecap:butt;stroke-linejoin:miter;stroke-opacity:1" />
    <path
       sodipodi:type="arc"
       style="fill:none;stroke:#000000;stroke-width:1.5;stroke-linecap:butt;stroke-miterlimit:4;stroke-opacity:1;stroke-dasharray:none;stroke-dashoffset:0"
       id="path5047"
       sodipodi:cx="22.98097"
       sodipodi:cy="22.20401"
       sodipodi:rx="6.5659914"
       sodipodi:ry="6.5659914"
       d="m 29.546962,22.20401 a 6.5659914,6.5659914 0 1 1 -13.131983,0 6.5659914,6.5659914 0 1 1 13.131983,0 z"
       transform="translate(133.62896,1005.3587)" />
    <path
       transform="translate(162.01296,1005.3587)"
       d="m 29.546962,22.20401 a 6.5659914,6.5659914 0 1 1 -13.131983,0 6.5659914,6.5659914 0 1 1 13.131983,0 z"
       sodipodi:ry="6.5659914"
       sodipodi:rx="6.5659914"
       sodipodi:cy="22.20401"
       sodipodi:cx="22.98097"
       id="path5049"
       style="fill:none;stroke:#000000;stroke-width:1.5;stroke-linecap:butt;stroke-miterlimit:4;stroke-opacity:1;stroke-dasharray:none;stroke-dashoffset:0"
       sodipodi:type="arc" />
    <path
       inkscape:connector-curvature="0"
       id="path5051"
       d="m 164.49239,1027.0576 12.62691,0"
       style="fill:none;stroke:#000000;stroke-width:1px;stroke-linecap:butt;stroke-linejoin:miter;stroke-opacity:1" />
    <path
       style="fill:none;stroke:#000000;stroke-width:1px;stroke-linecap:butt;stroke-linejoin:miter;stroke-opacity:1"
       d="m 192.87639,1027.0576 12.6269,0"
       id="path5053"
       inkscape:connector-curvature="0" />
    <path
       sodipodi:nodetypes="cc"
       inkscape:connector-curvature="0"
       id="path5055"
       d="m 156.64057,1003.7119 0,15.8959"
       style="fill:none;stroke:#000000;stroke-width:1px;stroke-linecap:butt;stroke-linejoin:miter;stroke-opacity:1" />
    <path
       style="fill:none;stroke:#000000;stroke-width:1px;stroke-linecap:butt;stroke-linejoin:miter;stroke-opacity:1"
       d="m 185.02457,1003.7119 0,15.8959"
       id="path5057"
       inkscape:connector-curvature="0"
       sodipodi:nodetypes="cc" />
    <path
       sodipodi:type="arc"
       style="fill:none;stroke:#000000;stroke-width:1.5;stroke-linecap:butt;stroke-miterlimit:4;stroke-opacity:1;stroke-dasharray:none;stroke-dashoffset:0"
       id="path5059"
       sodipodi:cx="22.98097"
       sodipodi:cy="22.20401"
       sodipodi:rx="6.5659914"
       sodipodi:ry="6.5659914"
       d="m 29.546962,22.20401 a 6.5659914,6.5659914 0 1 1 -13.131983,0 6.5659914,6.5659914 0 1 1 13.131983,0 z"
       transform="translate(190.39696,877.63073)" />
    <path
       transform="translate(190.39696,909.56273)"
       d="m 29.546962,22.20401 a 6.5659914,6.5659914 0 1 1 -13.131983,0 6.5659914,6.5659914 0 1 1 13.131983,0 z"
       sodipodi:ry="6.5659914"
       sodipodi:rx="6.5659914"
       sodipodi:cy="22.20401"
       sodipodi:cx="22.98097"
       id="path5061"
       style="fill:none;stroke:#000000;stroke-width:1.5;stroke-linecap:butt;stroke-miterlimit:4;stroke-opacity:1;stroke-dasharray:none;stroke-dashoffset:0"
       sodipodi:type="arc" />
    <path
       sodipodi:type="arc"
       style="fill:none;stroke:#000000;stroke-width:1.5;stroke-linecap:butt;stroke-miterlimit:4;stroke-opacity:1;stroke-dasharray:none;stroke-dashoffset:0"
       id="path5063"
       sodipodi:cx="22.98097"
       sodipodi:cy="22.20401"
       sodipodi:rx="6.5659914"
       sodipodi:ry="6.5659914"
       d="m 29.546962,22.20401 a 6.5659914,6.5659914 0 1 1 -13.131983,0 6.5659914,6.5659914 0 1 1 13.131983,0 z"
       transform="translate(190.39696,941.49474)" />
    <path
       inkscape:connector-curvature="0"
       id="path5065"
       d="m 221.26039,899.32966 12.6269,0"
       style="fill:none;stroke:#000000;stroke-width:1px;stroke-linecap:butt;stroke-linejoin:miter;stroke-opacity:1" />
    <path
       style="fill:none;stroke:#000000;stroke-width:1px;stroke-linecap:butt;stroke-linejoin:miter;stroke-opacity:1"
       d="m 221.26039,931.26166 12.6269,0"
       id="path5067"
       inkscape:connector-curvature="0" />
    <path
       inkscape:connector-curvature="0"
       id="path5069"
       d="m 221.26039,963.19364 12.6269,0"
       style="fill:none;stroke:#000000;stroke-width:1px;stroke-linecap:butt;stroke-linejoin:miter;stroke-opacity:1" />
    <path
       style="fill:none;stroke:#000000;stroke-width:1px;stroke-linecap:butt;stroke-linejoin:miter;stroke-opacity:1"
       d="m 213.40857,907.91596 0,15.8959"
       id="path5071"
       inkscape:connector-curvature="0"
       sodipodi:nodetypes="cc" />
    <path
       sodipodi:nodetypes="cc"
       inkscape:connector-curvature="0"
       id="path5073"
       d="m 213.40857,939.84794 0,15.8959"
       style="fill:none;stroke:#000000;stroke-width:1px;stroke-linecap:butt;stroke-linejoin:miter;stroke-opacity:1" />
    <path
       transform="translate(190.39696,973.42674)"
       d="m 29.546962,22.20401 a 6.5659914,6.5659914 0 1 1 -13.131983,0 6.5659914,6.5659914 0 1 1 13.131983,0 z"
       sodipodi:ry="6.5659914"
       sodipodi:rx="6.5659914"
       sodipodi:cy="22.20401"
       sodipodi:cx="22.98097"
       id="path5075"
       style="fill:none;stroke:#000000;stroke-width:1.5;stroke-linecap:butt;stroke-miterlimit:4;stroke-opacity:1;stroke-dasharray:none;stroke-dashoffset:0"
       sodipodi:type="arc" />
    <path
       style="fill:none;stroke:#000000;stroke-width:1px;stroke-linecap:butt;stroke-linejoin:miter;stroke-opacity:1"
       d="m 221.26039,995.12564 12.6269,0"
       id="path5077"
       inkscape:connector-curvature="0" />
    <path
       style="fill:none;stroke:#000000;stroke-width:1px;stroke-linecap:butt;stroke-linejoin:miter;stroke-opacity:1"
       d="m 213.40857,971.77994 0,15.8959"
       id="path5079"
       inkscape:connector-curvature="0"
       sodipodi:nodetypes="cc" />
    <path
       sodipodi:type="arc"
       style="fill:none;stroke:#000000;stroke-width:1.5;stroke-linecap:butt;stroke-miterlimit:4;stroke-opacity:1;stroke-dasharray:none;stroke-dashoffset:0"
       id="path5081"
       sodipodi:cx="22.98097"
       sodipodi:cy="22.20401"
       sodipodi:rx="6.5659914"
       sodipodi:ry="6.5659914"
       d="m 29.546962,22.20401 a 6.5659914,6.5659914 0 1 1 -13.131983,0 6.5659914,6.5659914 0 1 1 13.131983,0 z"
       transform="translate(190.39696,1005.3587)" />
    <path
       inkscape:connector-curvature="0"
       id="path5083"
       d="m 221.26039,1027.0576 12.6269,0"
       style="fill:none;stroke:#000000;stroke-width:1px;stroke-linecap:butt;stroke-linejoin:miter;stroke-opacity:1" />
    <path
       sodipodi:nodetypes="cc"
       inkscape:connector-curvature="0"
       id="path5085"
       d="m 213.40857,1003.7119 0,15.8959"
       style="fill:none;stroke:#000000;stroke-width:1px;stroke-linecap:butt;stroke-linejoin:miter;stroke-opacity:1" />
    <path
       style="fill:none;stroke:#ff0303;stroke-width:10;stroke-linecap:butt;stroke-linejoin:miter;stroke-miterlimit:4;stroke-opacity:0.50579146;stroke-dasharray:none"
       d="m 44.642857,900.57515 c 0.47619,-0.35714 0.871232,-0.86242 1.428571,-1.07142 0.445871,-0.16721 0.952381,0 1.428572,0 1.190476,0 2.380952,0 3.571428,0 3.214286,0 6.428572,0 9.642857,0 4.880953,0 9.761905,0 14.642857,0 1.428572,0 2.857143,0 4.285715,0 0.595238,0 1.194117,-0.0657 1.785714,0 0.487844,0.0542 0.941516,0.29626 1.428571,0.35714 0.472514,0.0591 0.952381,0 1.428572,0 0.952381,0 1.904762,0 2.857143,0 2.261905,0 4.523809,0 6.785714,0 1.666667,0 3.33333,0 5,0 0.83333,0 1.670799,0.0829 2.499999,0 1.44109,-0.14411 2.8417,-0.60321 4.28571,-0.71429 1.78046,-0.13695 3.57539,0.11879 5.35715,0 0.83993,-0.056 1.66111,-0.28723 2.5,-0.35714 0.59318,-0.0494 1.19047,0 1.78571,0 1.42857,0 2.85714,0 4.28572,0 0.47619,0 0.95238,0 1.42857,0 0.23809,0 0.48081,0.0467 0.71428,0 0.36915,-0.0738 0.70009,-0.29525 1.07143,-0.35714 0.822,-0.137 1.67504,0.11785 2.5,0 0.37268,-0.0532 0.70009,-0.29526 1.07143,-0.35715 0.35228,-0.0587 0.71429,0 1.07143,0 0.95238,0 1.90476,0 2.85714,0 0.35714,0 0.71915,0.0587 1.07143,0 0.37134,-0.0619 0.69875,-0.3039 1.07143,-0.35714 0.4714,-0.0673 0.95238,0 1.42857,0 0.47619,0 0.95238,0 1.42857,0 1.78572,0 3.57143,0 5.35714,0 4.76191,0 9.52381,0 14.28572,0 5.35714,0 10.71428,0 16.07143,0 1.54762,0 3.09524,0 4.64285,0 0.59524,0 1.19048,0 1.78572,0 0.59524,0 1.19343,-0.0592 1.78571,0 0.60402,0.0604 1.1817,0.29674 1.78572,0.35714 0.94765,0.0948 1.90476,0 2.85714,0 0.47619,0 0.95886,-0.0783 1.42857,0 2.4623,0.41039 -0.28603,0.35715 1.07143,0.35715 2.2619,0 4.52381,0 6.78571,0 0.2381,0 0.47619,0 0.71429,0 0.11905,0 0.27296,-0.0842 0.35714,0 0.0842,0.0842 0.11905,0.35714 0,0.35714 -0.11904,0 -0.11904,-0.35714 0,-0.35714 0.16836,0 0.21706,0.26375 0.35715,0.35714 0.22149,0.14766 0.47619,0.2381 0.71428,0.35714 0.2381,0.11905 0.47619,0.2381 0.71429,0.35715 0.23809,0 0.48841,-0.0753 0.71428,0 1.57651,0.5255 -1.29756,0.35714 1.07143,0.35714 0.59524,0 1.20204,-0.11674 1.78572,0 0.26102,0.0522 0.45603,0.29258 0.71428,0.35714 0.28094,0.0702 1.77146,0 2.14286,0 1.54762,0 3.09524,0 4.64286,0 1.54761,0 3.09523,0 4.64285,0 0.095,0 1.04194,-0.059 1.07143,0 0.10648,0.21296 -0.0577,0.4833 0,0.71429 -0.21526,0.64641 0.57855,0.66422 0.71429,1.07143 0.0753,0.22587 -0.0578,0.4833 0,0.71428 0.0646,0.25825 0.27296,0.46175 0.35714,0.71429 0.0377,0.11294 -0.0532,0.25066 0,0.35714 0.0753,0.15059 0.3039,0.19742 0.35714,0.35714 0.15059,0.45176 -0.15058,0.97682 0,1.42857 0.0532,0.15972 0.31631,0.19382 0.35715,0.35715 0.0866,0.34648 0,0.71428 0,1.07143 0,0.23809 0,0.47619 0,0.71428 0,1.54762 0,3.09524 0,4.64286 0,3.80952 0,7.61905 0,11.42857 0,1.66667 0,3.33333 0,5 0,0.0866 -0.0115,1.05994 0,1.07143 0.0229,0.0229 1.36204,0.66993 1.42857,0.71428 0.14008,0.0934 0.19742,0.30391 0.35714,0.35715 0.43207,0.14402 1.65638,-0.12162 2.14286,0 0.25825,0.0646 0.45325,0.30493 0.71428,0.35714 0.35021,0.07 0.71429,0 1.07143,0 0.35714,0 0.71429,0 1.07143,0 1.07143,0 2.14286,0 3.21429,0 2.85714,0 5.71428,0 8.57142,0 1.07143,0 2.14286,0 3.21429,0 0.35714,0 0.72122,-0.07 1.07143,0 0.26103,0.0522 0.45603,0.29258 0.71428,0.35714 0.23099,0.0578 0.47619,0 0.71429,0 0.35714,0 0.71429,0 1.07143,0 0.95238,0 1.90476,0 2.85714,0 0.2381,0 0.47619,0 0.71429,0 0.11904,0 0.27296,-0.0842 0.35714,0 0.0842,0.0842 0,0.2381 0,0.35715 0,0.11904 0,0.23809 0,0.35714 0,1.42857 0,2.85714 0,4.28571 0,2.14286 0,4.28572 0,6.42857 0,0.83334 0,1.66667 0,2.5 0,0.4762 0.0673,0.95717 0,1.42858 -0.0532,0.37267 -0.28331,0.70227 -0.35714,1.07142 -0.0467,0.23348 0.0753,0.48841 0,0.71429 -0.0532,0.15972 -0.28185,0.20656 -0.35715,0.35714 -0.0532,0.10648 0,0.2381 0,0.35715 0,0.35714 0.0866,0.72495 0,1.07142 -0.066,0.2641 -0.92663,0.78185 -1.07142,1.07143 -0.0532,0.10648 0,0.2381 0,0.35715 0,0.23809 0,0.47619 0,0.71428 0,0.59524 0,1.19048 0,1.78572 0,2.02381 0,4.04762 0,6.07142 0,0.83334 0,1.66667 0,2.5 0,0.11905 0,0.2381 0,0.35715 0,0.11905 -0.0842,0.27296 0,0.35714 0.77991,0.77992 0.57986,0.0742 1.42857,0.35714 0.15972,0.0532 0.20656,0.28185 0.35714,0.35715 0.10648,0.0532 0.25066,-0.0532 0.35714,0 0.15059,0.0753 0.20656,0.28185 0.35715,0.35714 0.10648,0.0532 0.2442,-0.0376 0.35714,0 3.06446,1.02148 -2.27643,-0.31988 1.78571,0.35714 0.37134,0.0619 0.70009,0.29526 1.07143,0.35714 0.35229,0.0587 0.72122,-0.07 1.07143,0 0.26103,0.0522 0.45326,0.30494 0.71429,0.35715 0.32723,0.0654 2.15035,0 2.5,0 1.54761,0 3.09523,0 4.64285,0 2.7381,0 5.47619,0 8.21429,0 0.83333,0 1.66667,0 2.5,0 0.16084,0 0.96274,0.0543 1.07143,0 0.15058,-0.0753 0.23809,-0.2381 0.35714,-0.35715"
       id="path5599"
       inkscape:connector-curvature="0" />
    <path
       style="fill:none;stroke:#defa00;stroke-width:10;stroke-linecap:butt;stroke-linejoin:miter;stroke-miterlimit:4;stroke-opacity:0.50579146;stroke-dasharray:none"
       d="m 42.5,931.28944 c 0.952381,0.2381 1.885317,0.57545 2.857142,0.71429 0.707107,0.10101 1.428572,0 2.142858,0 1.547619,0 3.095238,0 4.642857,0 1.785714,0 3.571428,0 5.357143,0 0.714285,0 1.428571,0 2.142857,0 0.357143,0 0.719145,0.0587 1.071428,0 0.37134,-0.0619 0.709452,-0.25372 1.071429,-0.35715 4.248533,-1.21386 -0.861997,0.20319 2.5,-0.35714 0.371339,-0.0619 0.700089,-0.29525 1.071428,-0.35714 0.58714,-0.0979 1.208249,0.14436 1.785715,0 0.25825,-0.0646 0.461747,-0.27297 0.714285,-0.35715 0.138973,-0.0463 1.016005,0.0554 1.071429,0 0.08418,-0.0842 -0.08418,-0.27296 0,-0.35714 0.08418,-0.0842 0.238095,0 0.357143,0 0.08662,0 1.059943,-0.0115 1.071428,0 0.08418,0.0842 0,0.2381 0,0.35714 0,0.59524 0,1.19048 0,1.78572 0,5.83333 0,11.66667 0,17.5 0,3.45238 0,6.90476 0,10.35714 0,0.18676 -0.04695,1.33467 0,1.42857 0.07529,0.15059 0.206559,0.28185 0.357143,0.35715 1.015455,0.50772 1.337197,0.35714 2.5,0.35714 0.476191,0 0.952381,0 1.428572,0 1.666666,0 3.333333,0 5,0 5.357143,0 10.714285,0 16.071428,0 0.952386,0 -0.119047,0.11905 0.357143,-0.35714 0.08418,-0.0842 0.238095,0 0.357143,0 0.11905,0 0.2381,0 0.35714,0 1.19048,0 2.38096,0 3.571429,0 0.11905,0 0.2381,0 0.35714,0 0.11905,0 0.27297,-0.0842 0.35715,0 0.0842,0.0842 0,0.23809 0,0.35714 0,0.11905 0,0.23809 0,0.35714 0,1.66667 0,3.33334 0,5 0,2.61905 0,5.2381 0,7.85714 0,0.71429 0,1.42858 0,2.14286 0,0.35714 0.07,0.72122 0,1.07143 -0.0522,0.26103 -0.30494,0.45326 -0.35715,0.71429 0,2.03106 0.15972,0.23512 -0.35714,1.78571 -0.0753,0.22588 0.16836,0.54593 0,0.71428 -0.0842,0.0842 -0.27296,-0.0842 -0.35714,0 -0.0842,0.0842 0,0.2381 0,0.35715 0,0.35714 0,0.71428 0,1.07143 0,0.35714 0.0587,0.71914 0,1.07142 -0.0619,0.37134 -0.283309,0.70228 -0.357139,1.07143 -0.0467,0.23347 0,0.47619 0,0.71429 0,0.35714 0,0.71428 0,1.07143 0,0.23809 0.0753,0.48841 0,0.71428 -0.0532,0.15972 -0.28185,0.20656 -0.35715,0.35715 -0.0532,0.10647 0,0.23809 0,0.35714 0,0.11905 0,0.23809 0,0.35714 0,0.2381 0,0.47619 0,0.71429 0,1.19047 0,2.38095 0,3.57143 0,0.11904 0,0.23809 0,0.35714 0,0.11905 -0.0991,0.29111 0,0.35714 1.051219,0.70081 2.427399,0.21414 3.571429,0.35714 0.48706,0.0609 0.94266,0.28773 1.42857,0.35715 0.35356,0.0505 0.71429,0 1.07143,0 0.83333,0 1.66667,0 2.5,0 5.2381,0 10.47619,0 15.71429,0 1.62581,0 0.0204,0.16836 1.07143,-0.35715 0.21295,-0.10648 0.4833,0.0577 0.71428,0 1.72974,-0.43243 0.42147,-0.35714 1.78572,-0.35714 0.11904,0 0.23809,0 0.35714,0 0.11905,0 0.27296,-0.0842 0.35714,0 0.0842,0.0842 0,0.2381 0,0.35714 0,0.35715 0,0.71429 0,1.07143 0,1.07143 0,2.14286 0,3.21429 0,5.59526 0,11.19046 0,16.78576 0,1.1904 0,2.3809 0,3.5714 0,0.119 0,0.2381 0,0.3571 0,0.1191 0.10648,0.3039 0,0.3572 -0.13041,0.065 -1.7162,-0.07 -1.78571,0 -0.0115,0.011 0,0.9848 0,1.0714 0,0.5952 0,1.1905 0,1.7857 0,0.1191 0,0.2381 0,0.3572 0,0.119 -0.0532,0.2506 0,0.3571 0.15058,0.3012 0.5637,0.4131 0.71428,0.7143 0.0532,0.1065 -0.0842,0.2729 0,0.3571 0.16836,0.1684 0.54593,-0.1683 0.71429,0 0.0842,0.084 -0.0991,0.2911 0,0.3572 0.31323,0.2088 0.72189,0.2173 1.07143,0.3571 0.24716,0.099 0.47619,0.2381 0.71428,0.3572 0.70347,0.3517 1.41289,0.7794 2.14286,1.0714 0.34954,0.1398 0.74862,0.1634 1.07143,0.3571 0.28873,0.1733 0.40165,0.5893 0.71428,0.7143 0.3316,0.1327 0.71915,-0.059 1.07143,0 1.48635,0.2477 0.6199,0.3257 1.78572,0.7143 0.46565,0.1552 0.94266,0.2877 1.42857,0.3571 0.35355,0.051 0.71428,0 1.07143,0 0.35714,0.1191 0.70009,0.2953 1.07143,0.3572 0.35228,0.059 0.71914,-0.059 1.07142,0 0.37134,0.062 0.70009,0.2952 1.07143,0.3571 0.35229,0.059 0.71915,-0.059 1.07143,0 3.5581,0.593 -1.92887,0.1607 2.5,0.7143 0.47251,0.059 0.95475,-0.047 1.42857,0 0.72055,0.072 1.42122,0.297 2.14286,0.3572 1.305,0.1087 2.62443,-0.1186 3.92857,0 0.72117,0.066 1.42169,0.2915 2.14286,0.3571 0.59279,0.054 1.19047,0 1.78571,0 1.78572,0 3.57143,0 5.35715,0 4.40476,0 8.80952,0 13.21428,0 11.78572,0 23.57143,0 35.35714,0 3.92858,0 7.85715,0 11.78572,0 1.30952,0 2.61905,0 3.92857,0 0.59524,0 1.19343,0.059 1.78571,0 0.60402,-0.06 1.18171,-0.2967 1.78572,-0.3571 0.59228,-0.059 1.19292,0.054 1.78571,0 0.72117,-0.066 1.42232,-0.2851 2.14286,-0.3572 0.47383,-0.047 0.95529,0.053 1.42857,0 0.60331,-0.067 1.1824,-0.2901 1.78572,-0.3571 0.47327,-0.053 0.95238,0 1.42857,0 0.47619,0 0.95238,0 1.42857,0 2.2619,0 4.52381,0 6.78571,0 0.54167,0 2.37764,0.08 2.85715,0 0.37134,-0.062 0.69787,-0.3105 1.07142,-0.3572 0.59065,-0.074 1.19412,0.066 1.78572,0 0.48784,-0.054 0.94073,-0.3029 1.42857,-0.3571 1.06488,-0.1183 2.15744,0.1761 3.21429,0 0.26257,-0.044 0.45603,-0.2926 0.71428,-0.3572 0.34648,-0.087 0.71429,0 1.07143,0 0.83333,0 1.66667,0 2.5,0 2.61905,0 5.2381,0 7.85714,0"
       id="path5601"
       inkscape:connector-curvature="0" />
    <path
       style="fill:none;stroke:#2dff09;stroke-width:10;stroke-linecap:butt;stroke-linejoin:miter;stroke-miterlimit:4;stroke-opacity:0.52509652;stroke-dasharray:none"
       d="m 38.571428,963.07515 c 3.333334,0 6.666667,0 10,0 2,0 0.857143,0 2.857143,0 0.357143,0 0.719145,0.0587 1.071429,0 0.371339,-0.0619 0.702277,-0.28331 1.071428,-0.35714 0.233472,-0.0467 0.4833,0.0577 0.714286,0 0.25825,-0.0646 0.451709,-0.31338 0.714286,-0.35714 0.469711,-0.0783 0.957167,0.0673 1.428571,0 0.372678,-0.0532 0.714286,-0.2381 1.071429,-0.35714 0.357142,-0.11905 0.714285,-0.2381 1.071428,-0.35715 0.357143,-0.11904 0.700089,-0.29525 1.071429,-0.35714 0.352283,-0.0587 0.714285,0 1.071428,0 0.238096,0 0.488409,0.0753 0.714286,0 0.159719,-0.0532 0.206558,-0.28185 0.357143,-0.35714 0.106479,-0.0532 0.24661,0.0442 0.357143,0 0.494318,-0.19773 0.939221,-0.50457 1.428571,-0.71429 3.019882,-1.29423 -0.394486,0.18791 1.785714,-0.35714 1.724623,-0.43116 -0.0177,-0.16972 1.071429,-0.71429 0.106479,-0.0532 0.250663,0.0532 0.357143,0 1.187766,-0.59388 -0.170672,-0.0809 0.357143,-0.71428 0.538903,-0.64669 1.190476,-1.19048 1.785714,-1.78572 1.259659,-1.25966 0.845552,-0.61967 1.428571,-1.78571 0.119048,-0.2381 0.292581,-0.45604 0.357143,-0.71429 0.05775,-0.23098 0,-0.47619 0,-0.71428 0,-0.2381 0,-0.47619 0,-0.71429 0,-1.19047 0,-2.38095 0,-3.57143 0,-4.16666 0,-8.33333 0,-12.5 0,-1.19047 0,-2.38095 0,-3.57143 0,-0.11904 0,-0.23809 0,-0.35714 0,-0.11905 -0.08418,-0.27296 0,-0.35714 0.08418,-0.0842 0.238096,0 0.357143,0 0.119048,0 0.238095,0 0.357143,0 0.476191,0 0.952381,0 1.428571,0 2.5,0 5,0 7.5,0 1.190477,0 2.380953,0 3.571429,0 0.476191,0 0.952381,0 1.428571,0 0.357143,0 0.721222,0.07 1.071429,0 0.261029,-0.0522 0.453257,-0.30494 0.714286,-0.35714 0.700415,-0.14009 1.43829,0.11742 2.142857,0 0.371339,-0.0619 0.700089,-0.29526 1.071428,-0.35715 0.58714,-0.0979 1.202036,0.11674 1.785715,0 0.369151,-0.0738 0.700089,-0.29525 1.071428,-0.35714 0.704567,-0.11743 1.442443,0.14008 2.142857,0 0.26103,-0.0522 0.453257,-0.30494 0.714286,-0.35714 0.700413,-0.14009 1.438293,0.11743 2.142853,0 0.37134,-0.0619 0.70228,-0.28331 1.07143,-0.35715 0.35021,-0.07 0.714289,0 1.071429,0 0.83333,0 1.66667,0 2.5,0 2.7381,0 5.47619,0 8.21429,0 2.2619,0 4.52381,0 6.78571,0 0.71429,0 1.42857,0 2.14286,0 0.23809,0 0.47619,0 0.71428,0 0.2381,0 0.4833,0.0577 0.71429,0 0.25825,-0.0646 0.45604,-0.29258 0.71429,-0.35714 0.34648,-0.0866 0.71428,0 1.07142,0 0.83334,0 1.66667,0 2.5,0 2.02381,0 4.04762,0 6.07143,0 2.5,0 5,0 7.5,0 0.13965,0 2.34597,-0.0514 2.5,0 0.15972,0.0532 0.19743,0.30391 0.35715,0.35714 0.32142,0.10715 0.75,-0.10714 1.07142,0 0.25254,0.0842 0.46175,0.27297 0.71429,0.35715 0.33314,0.11104 1.45563,-0.11003 1.78571,0 0.15972,0.0532 0.19743,0.3039 0.35715,0.35714 0.22587,0.0753 0.47619,0 0.71428,0 0.35715,0 0.71429,0 1.07143,0 1.19048,0 2.38095,0 3.57143,0 0.35714,0 0.71429,0 1.07143,0 0.23809,0 0.48841,-0.0753 0.71428,0 0.0444,0.0148 1.0408,1.01016 1.07143,1.07143 0.14286,0.28571 -0.14285,0.78571 0,1.07143 0.0753,0.15058 0.26376,0.21706 0.35715,0.35714 0.15173,0.2276 1.01351,1.9112 1.07142,2.14286 0.0577,0.23098 -0.0577,0.4833 0,0.71428 0.12913,0.5165 0.58516,0.91207 0.71429,1.42857 0.0577,0.23099 -0.0467,0.48082 0,0.71429 0.0738,0.36915 0.28331,0.70228 0.35714,1.07143 0.0934,0.46694 0,0.95238 0,1.42857 0,1.07143 0,2.14286 0,3.21429 0,1.78571 0,3.57142 0,5.35714 0,0.71428 0,1.42857 0,2.14286 0,0.35714 0.0866,0.72495 0,1.07142 -0.0408,0.16334 -0.3039,0.19743 -0.35714,0.35715 -0.35714,1.07143 0.17857,0.35714 0,1.07143 -0.0913,0.36522 -0.29525,0.70009 -0.35714,1.07142 -0.0783,0.46972 0,0.95239 0,1.42858 0,0.95238 0,1.90476 0,2.85714 0,1.54762 0,3.09524 0,4.64286 0,0.095 -0.059,1.04194 0,1.07142 0.21296,0.10648 0.47619,0 0.71428,0 0.83334,0 1.66667,0 2.5,0 0.71429,0 1.42857,0 2.14286,0 0.47619,0 0.95717,0.0673 1.42857,0 0.37268,-0.0532 0.70228,-0.28331 1.07143,-0.35714 0.46694,-0.0934 0.9666,0.1155 1.42857,0 0.25825,-0.0646 0.45604,-0.29258 0.71429,-0.35714 0.23098,-0.0577 0.48841,0.0753 0.71428,0 0.15972,-0.0532 0.19743,-0.3039 0.35715,-0.35714 0.22587,-0.0753 0.4833,0.0577 0.71428,0 0.25825,-0.0646 0.46175,-0.27297 0.71429,-0.35715 0.11294,-0.0376 0.2442,0.0376 0.35714,0 0.25254,-0.0842 0.46175,-0.27296 0.71429,-0.35714 0.22587,-0.0753 0.50132,0.10648 0.71428,0 0.15059,-0.0753 0.19743,-0.3039 0.35714,-0.35714 0.22588,-0.0753 0.47619,0 0.71429,0 0.54166,0 2.37763,0.0799 2.85714,0 0.37134,-0.0619 0.70009,-0.29526 1.07143,-0.35715 0.58714,-0.0979 1.19048,0 1.78572,0 0.11904,0 0.2442,0.0376 0.35714,0 0.25254,-0.0842 0.46175,-0.27296 0.71428,-0.35714 0.22588,-0.0753 0.48841,0.0753 0.71429,0 0.25254,-0.0842 0.45604,-0.29258 0.71429,-0.35714 0.23098,-0.0577 0.47619,0 0.71428,0 0.11905,0 0.25066,0.0532 0.35714,0 0.093,-0.0465 0.4351,-0.63633 0.71429,-0.35714 0.0115,0.0115 0,0.98481 0,1.07142 0,2.02381 0,4.04762 0,6.07143 0,2.26191 0,4.52381 0,6.78572 0,0.83333 0,1.66666 0,2.5 0,0.23809 -0.0467,0.48081 0,0.71428 0.0738,0.36915 0.29525,0.70009 0.35714,1.07143 0.0587,0.35229 -0.07,0.72122 0,1.07143 0.0522,0.26103 0.30494,0.45325 0.35715,0.71428 0.07,0.35021 -0.0701,0.72123 0,1.07143 0.0522,0.26103 0.30493,0.45326 0.35714,0.71429 0.07,0.35021 0,0.71428 0,1.07143 0,0.23809 -0.0753,0.48841 0,0.71428 0.0532,0.15972 0.28185,0.20656 0.35714,0.35715 0.0532,0.10647 0,0.23809 0,0.35714 0,0.23809 -0.0577,0.4833 0,0.71428 0.0646,0.25825 0.27297,0.46175 0.35714,0.71429 0.10715,0.32143 -0.10714,0.75 0,1.07143 0.0532,0.15972 0.30391,0.19742 0.35715,0.35714 0.0753,0.22588 -0.0753,0.48841 0,0.71429 0.0532,0.15972 0.3039,0.19742 0.35714,0.35714 0.0753,0.22588 0,0.47619 0,0.71429 0,0.11904 -0.0532,0.25066 0,0.35714 0.15058,0.30117 0.5637,0.41311 0.71429,0.71428 0.10648,0.21296 -0.16836,0.54593 0,0.71429 0.0842,0.0842 0.27296,-0.0842 0.35714,0 0.18823,0.18823 0.16891,0.52605 0.35714,0.71429 0.0842,0.0842 0.25066,-0.0532 0.35714,0 1.1845,1.18449 -0.33671,-0.16836 0.71429,0.35714 1.08913,0.54456 -0.65319,0.28313 1.07143,0.71428 0.23098,0.0577 0.4833,-0.0577 0.71428,0 0.25825,0.0646 0.45326,0.30494 0.71429,0.35715 0.35021,0.07 0.71915,-0.0587 1.07143,0 0.37134,0.0619 0.70009,0.29525 1.07143,0.35714 0.35228,0.0587 0.71428,0 1.07143,0 0.35714,0 0.71428,0 1.07142,0 1.30953,0 2.61905,0 3.92858,0 3.45238,0 6.90476,0 10.35714,0 1.19047,0 2.38095,0 3.57143,0 0.47619,0 0.95716,0.0673 1.42857,0 0.37268,-0.0532 0.69875,-0.3039 1.07143,-0.35714 0.4714,-0.0674 0.95529,0.0526 1.42857,0 0.60331,-0.067 1.18118,-0.30219 1.78571,-0.35715 0.71136,-0.0647 1.42857,0 2.14286,0 1.42857,0 2.85714,0 4.28571,0 3.57143,0 7.14286,0 10.71429,0 11.07143,0 22.14286,0 33.21429,0"
       id="path5607"
       inkscape:connector-curvature="0" />
    <path
       style="fill:none;stroke:#0b9cff;stroke-width:10;stroke-linecap:butt;stroke-linejoin:miter;stroke-miterlimit:4;stroke-opacity:0.52123551;stroke-dasharray:none"
       d="m 44.642857,995.9323 c 7.97619,0 15.952381,0 23.928571,0 1.666667,0 3.333334,0 5,0 0.595238,0 1.202035,-0.11674 1.785714,0 0.26103,0.0522 0.453257,0.30493 0.714286,0.35714 0.583679,0.11673 1.190476,0 1.785714,0 1.666667,0 3.333334,0 5,0 3.333334,0 6.666667,0 10,0 1.54762,0 3.095239,0 4.642859,0 0.47619,0 0.95238,0 1.42857,0 0.2381,0 0.4833,0.0577 0.71429,0 1.724619,-0.43116 -0.0177,-0.16972 1.071419,-0.71429 0.10648,-0.0532 0.27297,0.0842 0.35715,0 0.0842,-0.0842 0,-0.23809 0,-0.35714 0,-0.2381 -0.10648,-0.50133 0,-0.71429 0.0532,-0.10648 0.27296,0.0842 0.35714,0 0.0842,-0.0842 0,-0.23809 0,-0.35714 0,-0.23809 0,-0.47619 0,-0.71428 0,-7.26191 0,-14.52381 0,-21.78572 0,-2.02381 0,-4.04762 0,-6.07143 0,-1.40052 -0.28535,-3.64321 0.71429,-4.64285 0.25253,-0.25254 0.71428,0 1.07142,0 1.07143,0 2.14286,0 3.21429,0 0.59524,0 1.19343,0.0592 1.78571,0 4.73879,-0.47388 -1.14469,-0.35715 3.57143,-0.35715 5.47619,0 10.95238,0 16.42857,0 1.54762,0 3.09524,0 4.64286,0 0.47619,0 0.95238,0 1.42857,0 0.59524,0 1.19508,-0.0738 1.78572,0 0.74711,0.0934 1.40455,0.56663 2.14285,0.71429 0.23348,0.0467 0.47619,0 0.71429,0 0.35714,0.11905 0.70228,0.28331 1.07143,0.35714 0.46694,0.0934 0.9666,-0.11549 1.42857,0 0.25825,0.0646 0.46175,0.27297 0.71429,0.35715 0.11293,0.0376 0.23809,0 0.35714,0 0.83333,0 1.66667,0 2.5,0 1.90476,0 3.80952,0 5.71428,0 1.07143,0 2.14286,0 3.21429,0 0.20578,0 1.65554,0.0651 1.78571,0 0.15059,-0.0753 0.2381,-0.2381 0.35715,-0.35715 0.11904,-0.11904 0.26375,-0.21706 0.35714,-0.35714 0.14766,-0.22149 0.19742,-0.50133 0.35714,-0.71429 0.20203,-0.26937 0.49516,-0.45863 0.71429,-0.71428 0.24937,-0.29094 2.18236,-2.70607 2.5,-3.21429 0.28217,-0.45147 0.41896,-0.98559 0.71428,-1.42857 0.18678,-0.28016 0.56371,-0.41311 0.71429,-0.71428 0.0279,-0.0559 0,-1.68587 0,-1.78572 0,-1.19047 0,-2.38095 0,-3.57143 0,-3.80952 0,-7.61904 0,-11.42857 0,-0.95238 0,-1.90476 0,-2.85714 0,-0.19955 0.0702,-1.57496 0,-1.78572 -0.0842,-0.25253 -0.27296,-0.46174 -0.35714,-0.71428 -0.0377,-0.11294 0.0532,-0.25066 0,-0.35714 -0.29771,-0.59541 -0.71429,-0.16137 -0.71429,-1.07143 0,-0.11905 0,-0.2381 0,-0.35715 0,-0.11904 -0.11294,-0.31949 0,-0.35714 0.0486,-0.0162 2.03288,0.0157 2.14286,0 0.48591,-0.0694 0.94151,-0.29626 1.42857,-0.35714 0.47251,-0.0591 0.95238,0 1.42857,0 0.83333,0 1.66667,0 2.5,0 1.90476,0 3.80953,0 5.71429,0 0.71428,0 1.42857,0 2.14285,0 0.47619,0 0.95717,-0.0673 1.42858,0 0.37267,0.0532 0.69875,0.3039 1.07142,0.35714 0.47141,0.0673 0.95886,-0.0783 1.42858,0 0.26257,0.0438 0.45325,0.30494 0.71428,0.35714 0.35021,0.07 0.71429,0 1.07143,0 0.71429,0 1.42857,0 2.14286,0 2.14285,0 4.28571,0 6.42857,0 2.85714,0 5.71428,0 8.57143,0 0.83333,0 1.66666,0 2.5,0 0.47619,0 0.95716,-0.0673 1.42857,0 0.37268,0.0532 0.69787,0.31045 1.07143,0.35715 0.70877,0.0886 1.42857,0 2.14285,0 1.80984,0 -0.42591,0.10648 1.42858,-0.35715 0.57746,-0.14436 1.19857,0.0979 1.78571,0 0.37134,-0.0619 0.70009,-0.29525 1.07143,-0.35714 0.35228,-0.0587 0.71428,0 1.07143,0 0.23809,0 0.48841,0.0753 0.71428,0 0.15972,-0.0532 0.20656,-0.28185 0.35715,-0.35714 0.21295,-0.10648 0.54592,0.16836 0.71428,0 0.0842,-0.0842 -0.0532,-0.25066 0,-0.35714 0.0753,-0.15059 0.28185,-0.20656 0.35714,-0.35715 0.11224,-0.22447 -0.11223,-1.2041 0,-1.42857 0.0753,-0.15058 0.28185,-0.20656 0.35715,-0.35714 0.04,-0.0801 0,-1.3437 0,-1.42857 0,-1.07143 0,-2.14286 0,-3.21429 0,-2.97619 0,-5.95238 0,-8.92857 0,-0.59524 0,-1.19048 0,-1.78571 0,-0.33668 -0.0553,-0.73987 0,-1.07143 0.65818,-3.94912 0.0243,-0.0971 0.71428,-2.85715 0.0289,-0.11549 -0.0532,-0.25066 0,-0.35714 0.0753,-0.15058 0.28185,-0.20656 0.35715,-0.35714 0.0532,-0.10648 -0.0842,-0.27296 0,-0.35714 0.0842,-0.0842 0.3039,0.10648 0.35714,0 1.43279,-2.86558 0.66496,-2.01954 1.42857,-3.92858 0.11905,-0.23809 0.2381,-0.47619 0.35714,-0.71428 0.11905,-0.11905 0.28185,-0.20656 0.35715,-0.35714 0.0532,-0.10648 -0.0842,-0.27297 0,-0.35715 0.16835,-0.16836 0.54592,0.16836 0.71428,0 0.0842,-0.0842 -0.0842,-0.27296 0,-0.35714 0.0144,-0.0144 1.29742,0 1.42857,0 1.66667,0 3.33334,0 5,0 3.75352,0 -0.92394,0.11549 2.85715,-0.35714 0.47251,-0.0591 0.95238,0 1.42857,0 1.19047,0 2.38095,0 3.57143,0 0.35714,0 0.71704,0.0443 1.07142,0 0.60234,-0.0753 1.19048,-0.2381 1.78572,-0.35715 0.71428,0 1.4315,0.0647 2.14286,0 0.60453,-0.055 1.1817,-0.29674 1.78571,-0.35714 1.06611,-0.10661 2.15113,0.1329 3.21429,0 0.48705,-0.0609 0.94265,-0.28772 1.42857,-0.35714 0.35355,-0.0505 0.71914,0.0587 1.07143,0 0.37134,-0.0619 0.69875,-0.3039 1.07142,-0.35714 0.47141,-0.0673 0.9553,0.0526 1.42858,0 4.33996,-0.48222 -0.47938,-0.18662 3.21428,-0.71429 0.35355,-0.0505 0.71915,0.0587 1.07143,0 0.37134,-0.0619 0.70009,-0.29525 1.07143,-0.35714 0.35228,-0.0587 0.72122,0.07 1.07143,0 0.52206,-0.10441 0.90342,-0.62676 1.42857,-0.71429 0.46971,-0.0783 0.9666,0.1155 1.42857,0 0.5165,-0.12912 0.93922,-0.50456 1.42857,-0.71428 0.5404,-0.2316 2.00573,-0.63191 2.5,-0.71429 0.23486,-0.0391 0.47619,0 0.71429,0 0.11904,0 0.25066,0.0532 0.35714,0 0.15058,-0.0753 0.20656,-0.28185 0.35714,-0.35714 0.10869,-0.0543 0.91059,0 1.07143,0 1.19048,0 2.38095,0 3.57143,0 0.33637,0 1.58255,-0.0677 1.78571,0 0.15972,0.0532 0.19743,0.3039 0.35715,0.35714 0.61327,0.20442 0.7364,-0.31291 1.07143,0.35714 0.0543,0.10869 0,0.91059 0,1.07143"
       id="path5609"
       inkscape:connector-curvature="0" />
    <path
       style="fill:none;stroke:#fa00f9;stroke-width:10;stroke-linecap:butt;stroke-linejoin:miter;stroke-miterlimit:4;stroke-opacity:0.3745174;stroke-dasharray:none"
       d="m 43.571428,1027.718 c 20,0 40,0 60.000002,0 2.14285,0 4.28571,0 6.42857,0 0.83333,0 1.66667,0 2.5,0 0.23809,0 0.47943,0.039 0.71428,0 0.48417,-0.081 0.94441,-0.2764 1.42858,-0.3571 0.13357,-0.022 1.38108,0.024 1.42857,0 0.10648,-0.053 -0.0842,-0.273 0,-0.3572 0.0842,-0.084 0.2404,0.023 0.35714,0 0.48131,-0.096 0.9444,-0.2764 1.42857,-0.3571 0.23486,-0.039 0.48841,0.075 0.71429,0 0.15972,-0.053 0.20656,-0.2819 0.35714,-0.3572 0.24669,-0.1233 1.66035,0.1254 1.78571,0 0.0842,-0.084 -0.10648,-0.3039 0,-0.3571 0.21296,-0.1065 0.48841,0.075 0.71429,0 0.15972,-0.053 0.19742,-0.3039 0.35714,-0.3571 1.62582,0 0.0204,0.1683 1.07143,-0.3572 0.10648,-0.053 0.27296,0.084 0.35714,0 0.0842,-0.084 -0.0842,-0.2729 0,-0.3571 0.0842,-0.084 0.27297,0.084 0.35715,0 0.16836,-0.1684 -0.10648,-0.5014 0,-0.7143 0.0753,-0.1506 0.28185,-0.2066 0.35714,-0.3572 0.0532,-0.1064 -0.0532,-0.2506 0,-0.3571 0.0753,-0.1506 0.28185,-0.2066 0.35714,-0.3571 0.0532,-0.1065 0,-0.2381 0,-0.3572 0,-0.119 0,-0.2381 0,-0.3571 0,-0.4762 0,-0.9524 0,-1.4286 0,-1.5476 0,-3.0952 0,-4.6429 0,-3.5714 0,-7.1428 0,-10.7142 0,-0.9524 0,-1.9048 0,-2.8572 0,-0.5952 -0.0842,-1.1964 0,-1.7857 0.0376,-0.2635 0.27297,-0.4617 0.35715,-0.7143 0.0376,-0.1129 -0.0532,-0.25065 0,-0.35713 0.0753,-0.15059 0.28185,-0.20656 0.35714,-0.35715 0.0532,-0.10648 -0.0842,-0.27296 0,-0.35714 0.0842,-0.0842 0.27296,0.0842 0.35714,0 0.0842,-0.0842 -0.0842,-0.27296 0,-0.35714 0.0842,-0.0842 0.27296,0.0842 0.35714,0 0.0842,-0.0842 0,-0.2381 0,-0.35714 0.11905,0 0.25067,0.0532 0.35715,0 0.53239,-0.2662 0.65053,-1.00768 1.07143,-1.42858 0.18823,-0.18823 0.49279,-0.20948 0.71428,-0.35714 0.14008,-0.0934 0.20656,-0.28185 0.35714,-0.35714 0.10648,-0.0532 0.27297,0.0842 0.35715,0 0.0842,-0.0842 -0.0842,-0.27297 0,-0.35714 0.0842,-0.0842 0.23809,0 0.35714,0 0.11905,0 0.2381,0 0.35714,0 0.67538,0 1.52931,0.0877 2.14286,0 0.37268,-0.0532 0.69875,-0.30391 1.07143,-0.35715 0.4714,-0.0673 0.95238,0 1.42857,0 0.35714,0 0.71429,0 1.07143,0 1.30952,0 2.61905,0 3.92857,0 2.02381,0 4.04762,0 6.07143,0 0.71428,0 1.42857,0 2.14286,0 0.23809,0 0.48081,-0.0467 0.71428,0 0.36915,0.0738 0.70228,0.28332 1.07143,0.35715 0.23347,0.0467 0.47619,0 0.71429,0 0.47619,0 0.95238,0 1.42857,0 0.11904,0 0.27296,-0.0842 0.35714,0 0.0842,0.0842 -0.0842,0.27296 0,0.35714 0.0842,0.0842 0.2381,0 0.35714,0 0.35715,0 0.71429,0 1.07143,0 0.2381,0 0.4833,-0.0577 0.71429,0 0.25825,0.0646 0.45603,0.29258 0.71428,0.35714 0.23099,0.0577 0.47619,0 0.71429,0 0.23809,0 0.47619,0 0.71428,0 0.83334,0 1.66667,0 2.5,0 0.95239,0 1.90477,0 2.85715,0 0.59524,0 1.19343,0.0592 1.78571,0 0.60402,-0.0604 1.1824,-0.29011 1.78572,-0.35714 0.47327,-0.0526 0.95716,0.0673 1.42857,0 0.37268,-0.0532 0.70227,-0.28331 1.07143,-0.35714 0.23347,-0.0467 0.47619,0 0.71428,0 0.11905,0 0.25066,0.0532 0.35714,0 0.15059,-0.0753 0.19743,-0.30391 0.35715,-0.35715 0.45175,-0.15058 0.96163,0.0934 1.42857,0 0.36915,-0.0738 0.70009,-0.29525 1.07143,-0.35714 0.35228,-0.0587 0.72122,0.07 1.07143,0 0.52205,-0.10441 0.92349,-0.54593 1.42857,-0.71429 0.22587,-0.0753 0.54592,0.16836 0.71428,0 0.0842,-0.0842 -0.11294,-0.31949 0,-0.35714 0.33882,-0.11294 0.71915,0.0587 1.07143,0 0.37134,-0.0619 0.70945,-0.25372 1.07143,-0.35714 0.47196,-0.13485 0.95661,-0.2223 1.42857,-0.35714 0.36198,-0.10343 0.70228,-0.28332 1.07143,-0.35715 0.23347,-0.0467 0.48841,0.0753 0.71429,0 0.15971,-0.0532 0.20655,-0.28185 0.35714,-0.35714 0.21296,-0.10648 0.4833,0.0577 0.71428,0 0.36523,-0.0913 0.71429,-0.2381 1.07143,-0.35714 0.35715,-0.11905 0.7219,-0.21733 1.07143,-0.35715 0.24716,-0.0989 0.46175,-0.27296 0.71429,-0.35714 0.11294,-0.0376 0.27296,0.0842 0.35714,0 0.0842,-0.0842 -0.0842,-0.27296 0,-0.35714 0.0842,-0.0842 0.27296,0.0842 0.35714,0 0.0842,-0.0842 -0.0842,-0.27297 0,-0.35714 0.0842,-0.0842 0.27297,0.0842 0.35715,0 0.0695,-0.0695 -0.0652,-1.65531 0,-1.78572 0.0532,-0.10648 0.27296,0.0842 0.35714,0 0.0842,-0.0842 0,-0.23809 0,-0.35714 0,-0.11905 0,-0.2381 0,-0.35714 0,-1.07143 0,-2.14286 0,-3.21429 0,-3.09524 0,-6.19047 0,-9.28571 0,-1.07143 0,-2.14286 0,-3.21429 0,-0.23809 0.0467,-0.48081 0,-0.71428 -0.0738,-0.36915 -0.28331,-0.70228 -0.35714,-1.07143 -0.0467,-0.23347 0,-0.47619 0,-0.71429 -0.11905,-0.23809 -0.27297,-0.46175 -0.35715,-0.71428 -0.0376,-0.11294 0.0532,-0.25067 0,-0.35715 -0.0753,-0.15058 -0.32412,-0.19205 -0.35714,-0.35714 -0.0934,-0.46694 0,-0.95238 0,-1.42857 0,-1.07143 0,-2.14286 0,-3.21429 0,-0.23809 -0.10648,-0.50132 0,-0.71428 0.0532,-0.10648 0.25066,0.0532 0.35714,0 0.15059,-0.0753 0.20656,-0.28185 0.35715,-0.35715 0.51236,-0.25618 2.04228,-0.59985 2.5,-0.71428 0.47619,-0.11905 0.95238,-0.2381 1.42857,-0.35714 0.84426,-0.21107 2.39815,-0.62361 3.21428,-0.71429 0.47328,-0.0526 0.95717,0.0673 1.42857,0 0.37268,-0.0532 0.70009,-0.29525 1.07143,-0.35714 0.35229,-0.0587 0.71429,0 1.07143,0 0.35714,0 0.71429,0 1.07143,0 1.07143,0 2.14286,0 3.21429,0 0.95238,0 1.90476,0 2.85714,0 0.40952,0 1.05861,-0.0925 1.42857,0 0.25825,0.0646 0.46175,0.27296 0.71429,0.35714 0.11293,0.0376 0.25066,-0.0532 0.35714,0 0.15058,0.0753 0.21706,0.26375 0.35714,0.35714 0.44298,0.29532 0.95238,0.47619 1.42857,0.71429 0.2381,0.11905 0.47619,0.23809 0.71429,0.35714 0.23809,0.11905 0.50133,0.19743 0.71428,0.35714 0.26938,0.20204 0.47619,0.4762 0.71429,0.71429 0.11905,0.11905 0.3039,0.19742 0.35714,0.35714 0.0753,0.22588 0,0.47619 0,0.71429 0,0.11905 -0.0532,-0.25066 0,-0.35714 0.20472,-0.40944 0.74519,-0.49679 1.07143,-0.71429 1.50678,-1.00452 -1.94012,0.61292 1.42857,-1.07143 1.72633,-0.86316 0.42363,-0.0847 1.78572,-0.35714 0.36915,-0.0738 0.71428,-0.2381 1.07143,-0.35714 0.76321,-0.25441 1.71521,-0.60218 2.5,-0.71429 0.35355,-0.0505 0.71914,0.0587 1.07142,0 0.37134,-0.0619 0.70228,-0.28331 1.07143,-0.35714 0.46695,-0.0934 0.96163,0.0934 1.42857,0 0.36916,-0.0738 0.70228,-0.28331 1.07143,-0.35715 0.23347,-0.0467 0.4833,0.0577 0.71429,0 0.25825,-0.0646 0.45326,-0.30493 0.71428,-0.35714 0.35021,-0.07 0.72123,0.07 1.07143,0 0.26103,-0.0522 0.45326,-0.30493 0.71429,-0.35714 0.81715,-0.16343 1.67504,0.11785 2.5,0 0.37268,-0.0532 0.70228,-0.28331 1.07143,-0.35714 0.23347,-0.0467 0.47619,0 0.71428,0 0.71429,0 1.42857,0 2.14286,0 1.90476,0 3.80952,0 5.71429,0 0.59523,0 1.19047,0 1.78571,0 0.2381,0 0.4833,0.0577 0.71429,0 0.36522,-0.0913 0.71428,-0.2381 1.07142,-0.35715 0.35715,-0.11904 0.77026,-0.13126 1.07143,-0.35714 0.21296,-0.15972 0.20949,-0.49279 0.35715,-0.71429 -0.0357,-0.70752 0.52605,-0.16891 0.71428,-0.35714 0.0842,-0.0842 -0.0842,-0.27296 0,-0.35714 0.0842,-0.0842 0.27297,0.0842 0.35714,0 0.16836,-0.16836 -0.0753,-0.48841 0,-0.71429 0.87361,-2.62081 -0.18577,2.2005 0.35715,-2.14285 0.0609,-0.48706 0.27645,-0.94441 0.35714,-1.42858 0.0783,-0.46971 0,-0.95238 0,-1.42857 0,-0.95238 0,-1.90476 0,-2.85714 0,-1.90476 0,-3.80952 0,-5.71429 0,-0.71428 0,-1.42857 0,-2.14285 0,-0.32857 -0.0643,-0.75 0,-1.07143 0.0963,-0.48131 0.27645,-0.9444 0.35714,-1.42857 0.0783,-0.46971 0,-0.95238 0,-1.42857 0,-0.71429 0,-1.42858 0,-2.14286 0,-0.2381 -0.0577,-0.4833 0,-0.71429 0.0646,-0.25825 0.27297,-0.46174 0.35715,-0.71428 0.0376,-0.11294 -0.0842,-0.27297 0,-0.35715 0.16835,-0.16835 0.50132,0.10648 0.71428,0 0.15059,-0.0753 0.20656,-0.28185 0.35714,-0.35714 0.1087,-0.0543 0.91059,0 1.07143,0 0.81725,0 0.92085,0.0753 1.78572,-0.35714 0.38391,-0.19196 0.66422,-0.57855 1.07143,-0.71429 0.33881,-0.11293 0.71914,0.0587 1.07142,0 0.63591,0.71726 1.07143,-0.59523 1.42858,-0.71428 0.32142,-0.10715 0.75,0.10714 1.07142,0 0.25254,-0.0842 0.45326,-0.30494 0.71429,-0.35715 0.58368,-0.11673 1.20825,0.14437 1.78571,0 0.25825,-0.0646 0.45604,-0.29258 0.71429,-0.35714 0.23099,-0.0578 0.47619,0 0.71429,0 0.23809,0 0.47619,0 0.71428,0 0.83333,0 1.66667,0 2.5,0 2.85714,0 5.71429,0 8.57143,0"
       id="path5611"
       inkscape:connector-curvature="0" />
  </g>
</svg>
