<?xml version="1.0" encoding="UTF-8" standalone="no"?>
<svg
   xmlns:dc="http://purl.org/dc/elements/1.1/"
   xmlns:cc="http://creativecommons.org/ns#"
   xmlns:rdf="http://www.w3.org/1999/02/22-rdf-syntax-ns#"
   xmlns:svg="http://www.w3.org/2000/svg"
   xmlns="http://www.w3.org/2000/svg"
   xmlns:sodipodi="http://sodipodi.sourceforge.net/DTD/sodipodi-0.dtd"
   xmlns:inkscape="http://www.inkscape.org/namespaces/inkscape"
   version="1.1"
   width="1294"
   height="1232.825"
   viewBox="0,0 10352,9862.6"
   id="Petersen_graph"
   inkscape:version="0.48.3.1 r9886"
   sodipodi:docname="peterson.svg">
  <metadata
     id="metadata35">
    <rdf:RDF>
      <cc:Work
         rdf:about="">
        <dc:format>image/svg+xml</dc:format>
        <dc:type
           rdf:resource="http://purl.org/dc/dcmitype/StillImage" />
      </cc:Work>
    </rdf:RDF>
  </metadata>
  <defs
     id="defs33" />
  <sodipodi:namedview
     pagecolor="#ffffff"
     bordercolor="#666666"
     borderopacity="1"
     objecttolerance="10"
     gridtolerance="10"
     guidetolerance="10"
     inkscape:pageopacity="0"
     inkscape:pageshadow="2"
     inkscape:window-width="1215"
     inkscape:window-height="775"
     id="namedview31"
     showgrid="false"
     inkscape:zoom="0.54144654"
     inkscape:cx="968.51648"
     inkscape:cy="973.00241"
     inkscape:window-x="65"
     inkscape:window-y="24"
     inkscape:window-maximized="1"
     inkscape:current-layer="Petersen_graph" />
  <path
     style="stroke:#000000;stroke-width:80"
     inkscape:connector-curvature="0"
     id="path5"
     d="M 10176,3808.7 8509.3,4350.2 M 8266.2,9686.6 7236.1,8268.8 M 2085.8,9686.6 3115.9,8268.8 M 176,3808.7 1842.7,4350.2" />
  <polyline
     style="fill:none;stroke:#000000;stroke-width:80"
     id="polyline7"
     points="5000,0 10000,3632.7 8090.2,9510.6 1909.8,9510.6 0,3632.7 5000,0       5000,1752.4 7060.1,8092.8 1666.7,4174.2 8333.3,4174.2 2939.9,8092.8 5000,1752.4"
     transform="translate(176,176)" />
  <circle
     style="fill:#241f1c"
     r="176"
     cx="5000"
     cy="0"
     id="circle11"
     d="m 5176,0 c 0,97.202116 -78.7979,176 -176,176 -97.2021,0 -176,-78.797884 -176,-176 0,-97.202116 78.7979,-176 176,-176 97.2021,0 176,78.797884 176,176 z"
     sodipodi:cx="5000"
     sodipodi:cy="0"
     sodipodi:rx="176"
     sodipodi:ry="176"
     transform="translate(176,176)" />
  <circle
     style="fill:#241f1c"
     r="176"
     cx="5000"
     cy="1752.4"
     id="circle13"
     d="m 5176,1752.4 c 0,97.2021 -78.7979,176 -176,176 -97.2021,0 -176,-78.7979 -176,-176 0,-97.2021 78.7979,-176 176,-176 97.2021,0 176,78.7979 176,176 z"
     sodipodi:cx="5000"
     sodipodi:cy="1752.4"
     sodipodi:rx="176"
     sodipodi:ry="176"
     transform="translate(176,176)" />
  <circle
     style="fill:#241f1c"
     r="176"
     cx="10000"
     cy="3632.7"
     id="circle15"
     d="m 10176,3632.7 c 0,97.2021 -78.798,176 -176,176 -97.2021,0 -176,-78.7979 -176,-176 0,-97.2022 78.7979,-176 176,-176 97.202,0 176,78.7978 176,176 z"
     sodipodi:cx="10000"
     sodipodi:cy="3632.7"
     sodipodi:rx="176"
     sodipodi:ry="176"
     transform="translate(176,176)" />
  <circle
     style="fill:#241f1c"
     r="176"
     cx="8333.2998"
     cy="4174.2002"
     id="circle17"
     d="m 8509.2998,4174.2002 c 0,97.2021 -78.7979,176 -176,176 -97.2021,0 -176,-78.7979 -176,-176 0,-97.2021 78.7979,-176 176,-176 97.2021,0 176,78.7979 176,176 z"
     sodipodi:cx="8333.2998"
     sodipodi:cy="4174.2002"
     sodipodi:rx="176"
     sodipodi:ry="176"
     transform="translate(176,176)" />
  <circle
     style="fill:#241f1c"
     r="176"
     cx="8090.2002"
     cy="9510.5996"
     id="circle19"
     d="m 8266.2002,9510.5996 c 0,97.2021 -78.7979,176 -176,176 -97.2021,0 -176,-78.7979 -176,-176 0,-97.2021 78.7979,-176 176,-176 97.2021,0 176,78.7979 176,176 z"
     sodipodi:cx="8090.2002"
     sodipodi:cy="9510.5996"
     sodipodi:rx="176"
     sodipodi:ry="176"
     transform="translate(176,176)" />
  <circle
     style="fill:#241f1c"
     r="176"
     cx="7060.1001"
     cy="8092.7998"
     id="circle21"
     d="m 7236.1001,8092.7998 c 0,97.2021 -78.7979,176 -176,176 -97.2021,0 -176,-78.7979 -176,-176 0,-97.2021 78.7979,-176 176,-176 97.2021,0 176,78.7979 176,176 z"
     sodipodi:cx="7060.1001"
     sodipodi:cy="8092.7998"
     sodipodi:rx="176"
     sodipodi:ry="176"
     transform="translate(176,176)" />
  <circle
     style="fill:#241f1c"
     r="176"
     cx="1909.8"
     cy="9510.5996"
     id="circle23"
     d="m 2085.8,9510.5996 c 0,97.2021 -78.7978,176 -176,176 -97.2021,0 -176,-78.7979 -176,-176 0,-97.2021 78.7979,-176 176,-176 97.2022,0 176,78.7979 176,176 z"
     sodipodi:cx="1909.8"
     sodipodi:cy="9510.5996"
     sodipodi:rx="176"
     sodipodi:ry="176"
     transform="translate(176,176)" />
  <circle
     style="fill:#241f1c"
     r="176"
     cx="2939.8999"
     cy="8092.7998"
     id="circle25"
     d="m 3115.8999,8092.7998 c 0,97.2021 -78.7979,176 -176,176 -97.2021,0 -176,-78.7979 -176,-176 0,-97.2021 78.7979,-176 176,-176 97.2021,0 176,78.7979 176,176 z"
     sodipodi:cx="2939.8999"
     sodipodi:cy="8092.7998"
     sodipodi:rx="176"
     sodipodi:ry="176"
     transform="translate(176,176)" />
  <circle
     style="fill:#241f1c"
     r="176"
     cx="0"
     cy="3632.7"
     id="circle27"
     d="m 176,3632.7 c 0,97.2021 -78.797884,176 -176,176 -97.202116,0 -176,-78.7979 -176,-176 0,-97.2022 78.797884,-176 176,-176 97.202116,0 176,78.7978 176,176 z"
     sodipodi:cx="0"
     sodipodi:cy="3632.7"
     sodipodi:rx="176"
     sodipodi:ry="176"
     transform="translate(176,176)" />
  <circle
     style="fill:#241f1c"
     r="176"
     cx="1666.7"
     cy="4174.2002"
     id="circle29"
     d="m 1842.7,4174.2002 c 0,97.2021 -78.7979,176 -176,176 -97.2022,0 -176,-78.7979 -176,-176 0,-97.2021 78.7978,-176 176,-176 97.2021,0 176,78.7979 176,176 z"
     sodipodi:cx="1666.7"
     sodipodi:cy="4174.2002"
     sodipodi:rx="176"
     sodipodi:ry="176"
     transform="translate(176,176)" />
  <text
     xml:space="preserve"
     style="font-size:28px;font-style:normal;font-weight:normal;line-height:125%;letter-spacing:0px;word-spacing:0px;fill:#000000;fill-opacity:1;stroke:none;font-family:Sans"
     x="699.97675"
     y="41.571606"
     id="text3012"
     sodipodi:linespacing="125%"
     transform="matrix(8.0000003,0,0,8.0000003,-2.0500427e-4,0)"><tspan
       sodipodi:role="line"
       id="tspan3014"
       x="699.97675"
       y="41.571606" /></text>
  <text
     xml:space="preserve"
     style="font-size:28px;font-style:normal;font-weight:normal;line-height:125%;letter-spacing:0px;word-spacing:0px;fill:#000000;fill-opacity:1;stroke:none;font-family:Sans"
     x="701.82367"
     y="23.10256"
     id="text3016"
     sodipodi:linespacing="125%"
     transform="matrix(8.0000003,0,0,8.0000003,-2.0500427e-4,0)"><tspan
       sodipodi:role="line"
       id="tspan3018"
       x="701.82367"
       y="23.10256" /></text>
  <text
     xml:space="preserve"
     style="font-size:35px;font-style:normal;font-weight:normal;line-height:125%;letter-spacing:0px;word-spacing:0px;fill:#000000;fill-opacity:1;stroke:none;font-family:Sans"
     x="1167.2437"
     y="176.39563"
     id="text3020"
     sodipodi:linespacing="125%"
     transform="matrix(8.0000003,0,0,8.0000003,-2.0500427e-4,0)"><tspan
       sodipodi:role="line"
       id="tspan3022"
       x="1167.2437"
       y="176.39563" /></text>
  <text
     xml:space="preserve"
     style="font-size:384.00001521px;font-style:normal;font-weight:normal;line-height:125%;letter-spacing:0px;word-spacing:0px;fill:#000000;fill-opacity:1;stroke:none;font-family:Sans"
     x="5525.938"
     y="243.92143"
     id="text3024"
     sodipodi:linespacing="125%"><tspan
       sodipodi:role="line"
       id="tspan3026"
       x="5525.938"
       y="243.92143">A</tspan></text>
  <text
     xml:space="preserve"
     style="font-size:384.00001521px;font-style:normal;font-weight:normal;line-height:125%;letter-spacing:0px;word-spacing:0px;fill:#000000;fill-opacity:1;stroke:none;font-family:Sans"
     x="10061.936"
     y="3524.0239"
     id="text3028"
     sodipodi:linespacing="125%"><tspan
       sodipodi:role="line"
       id="tspan3030"
       x="10061.936"
       y="3524.0239">B</tspan></text>
  <text
     xml:space="preserve"
     style="font-size:384.00001521px;font-style:normal;font-weight:normal;line-height:125%;letter-spacing:0px;word-spacing:0px;fill:#000000;fill-opacity:1;stroke:none;font-family:Sans"
     x="5481.6123"
     y="1898.7479"
     id="text3032"
     sodipodi:linespacing="125%"><tspan
       sodipodi:role="line"
       id="tspan3034"
       x="5481.6123"
       y="1898.7479">C</tspan></text>
  <text
     xml:space="preserve"
     style="font-size:384.00001521px;font-style:normal;font-weight:normal;line-height:125%;letter-spacing:0px;word-spacing:0px;fill:#000000;fill-opacity:1;stroke:none;font-family:Sans"
     x="8421.8838"
     y="4055.9321"
     id="text3036"
     sodipodi:linespacing="125%"><tspan
       sodipodi:role="line"
       id="tspan3038"
       x="8421.8838"
       y="4055.9321">D</tspan></text>
  <text
     xml:space="preserve"
     style="font-size:48.0000001px;font-style:normal;font-weight:normal;line-height:125%;letter-spacing:0px;word-spacing:0px;fill:#000000;fill-opacity:1;stroke:none;font-family:Sans"
     x="217.93472"
     y="506.99152"
     id="text3040"
     sodipodi:linespacing="125%"
     transform="matrix(8.0000003,0,0,8.0000003,-2.0500427e-4,0)"><tspan
       sodipodi:role="line"
       id="tspan3042"
       x="217.93472"
       y="506.99152">E</tspan></text>
  <text
     xml:space="preserve"
     style="font-size:48.0000001px;font-style:normal;font-weight:normal;line-height:125%;letter-spacing:0px;word-spacing:0px;fill:#000000;fill-opacity:1;stroke:none;font-family:Sans"
     x="12.928331"
     y="425.72772"
     id="text3044"
     sodipodi:linespacing="125%"
     transform="matrix(8.0000003,0,0,8.0000003,-2.0500427e-4,0)"><tspan
       sodipodi:role="line"
       id="tspan3046"
       x="12.928331"
       y="425.72772">F</tspan></text>
  <text
     xml:space="preserve"
     style="font-size:48.0000001px;font-style:normal;font-weight:normal;line-height:125%;letter-spacing:0px;word-spacing:0px;fill:#000000;fill-opacity:1;stroke:none;font-family:Sans"
     x="350.91183"
     y="1001.9619"
     id="text3048"
     sodipodi:linespacing="125%"
     transform="matrix(8.0000003,0,0,8.0000003,-2.0500427e-4,0)"><tspan
       sodipodi:role="line"
       id="tspan3050"
       x="350.91183"
       y="1001.9619">G</tspan></text>
  <text
     xml:space="preserve"
     style="font-size:48.0000001px;font-style:normal;font-weight:normal;line-height:125%;letter-spacing:0px;word-spacing:0px;fill:#000000;fill-opacity:1;stroke:none;font-family:Sans"
     x="916.06458"
     y="992.72736"
     id="text3052"
     sodipodi:linespacing="125%"
     transform="matrix(8.0000003,0,0,8.0000003,-2.0500427e-4,0)"><tspan
       sodipodi:role="line"
       id="tspan3054"
       x="916.06458"
       y="992.72736">H</tspan></text>
  <text
     xml:space="preserve"
     style="font-size:48.0000001px;font-style:normal;font-weight:normal;line-height:125%;letter-spacing:0px;word-spacing:0px;fill:#000000;fill-opacity:1;stroke:none;font-family:Sans"
     x="197.61877"
     y="1210.6621"
     id="text3056"
     sodipodi:linespacing="125%"
     transform="matrix(8.0000003,0,0,8.0000003,-2.0500427e-4,0)"><tspan
       sodipodi:role="line"
       id="tspan3058"
       x="197.61877"
       y="1210.6621">I</tspan></text>
  <text
     xml:space="preserve"
     style="font-size:48.0000001px;font-style:normal;font-weight:normal;line-height:125%;letter-spacing:0px;word-spacing:0px;fill:#000000;fill-opacity:1;stroke:none;font-family:Sans"
     x="1076.7452"
     y="1201.4276"
     id="text3060"
     sodipodi:linespacing="125%"
     transform="matrix(8.0000003,0,0,8.0000003,-2.0500427e-4,0)"><tspan
       sodipodi:role="line"
       id="tspan3062"
       x="1076.7452"
       y="1201.4276">J</tspan></text>
</svg>
